<svg width="902" height="96" viewBox="0 0 902 96" fill="none" xmlns="http://www.w3.org/2000/svg">
<g filter="url(#filter0_b_21_82)">
<path d="M2.344 94C1.91733 94 1.53333 93.872 1.192 93.616C0.936001 93.2747 0.808001 92.8907 0.808001 92.464V5.936C0.808001 5.50933 0.936001 5.168 1.192 4.91199C1.53333 4.57066 1.91733 4.39999 2.344 4.39999H34.344C40.744 4.39999 46.3333 5.55199 51.112 7.856C55.976 10.0747 59.7307 13.232 62.376 17.328C65.0213 21.424 66.344 26.16 66.344 31.536V66.864C66.344 72.24 65.0213 76.976 62.376 81.072C59.7307 85.168 55.976 88.368 51.112 90.672C46.3333 92.8907 40.744 94 34.344 94H2.344ZM18.856 77.872C18.856 78.2987 19.0693 78.512 19.496 78.512H34.984C38.9093 78.512 42.0667 77.1893 44.456 74.544C46.9307 71.8987 48.2107 68.3573 48.296 63.92V34.48C48.296 30.0427 47.0587 26.5013 44.584 23.856C42.1947 21.2107 38.952 19.888 34.856 19.888H19.496C19.0693 19.888 18.856 20.1013 18.856 20.528V77.872ZM88.509 20.784C85.6077 20.784 83.1757 19.8453 81.213 17.968C79.3357 16.0053 78.397 13.5733 78.397 10.672C78.397 7.68533 79.3357 5.25333 81.213 3.376C83.0903 1.49866 85.5223 0.559998 88.509 0.559998C91.4957 0.559998 93.9277 1.49866 95.805 3.376C97.6823 5.25333 98.621 7.68533 98.621 10.672C98.621 13.5733 97.6397 16.0053 95.677 17.968C93.7997 19.8453 91.4103 20.784 88.509 20.784ZM80.829 94C80.4023 94 80.0183 93.872 79.677 93.616C79.421 93.2747 79.293 92.8907 79.293 92.464V29.616C79.293 29.1893 79.421 28.848 79.677 28.592C80.0183 28.2507 80.4023 28.08 80.829 28.08H95.805C96.2317 28.08 96.573 28.2507 96.829 28.592C97.1703 28.848 97.341 29.1893 97.341 29.616V92.464C97.341 92.8907 97.1703 93.2747 96.829 93.616C96.573 93.872 96.2317 94 95.805 94H80.829ZM137.646 94.896C131.929 94.896 126.937 94.0853 122.67 92.464C118.403 90.8427 115.075 88.5813 112.686 85.68C110.382 82.7787 109.23 79.4933 109.23 75.824V74.544C109.23 74.1173 109.358 73.776 109.614 73.52C109.955 73.1787 110.339 73.008 110.766 73.008H124.974C125.401 73.008 125.742 73.1787 125.998 73.52C126.339 73.776 126.51 74.1173 126.51 74.544V74.672C126.51 76.5493 127.534 78.1707 129.582 79.536C131.715 80.816 134.361 81.456 137.518 81.456C140.419 81.456 142.766 80.9013 144.558 79.792C146.35 78.5973 147.246 77.1467 147.246 75.44C147.246 73.904 146.478 72.752 144.942 71.984C143.406 71.216 140.889 70.4053 137.39 69.552C133.379 68.528 130.222 67.5467 127.918 66.608C122.457 64.7307 118.105 62.4267 114.862 59.696C111.619 56.9653 109.998 53.04 109.998 47.92C109.998 41.6053 112.43 36.6133 117.294 32.944C122.243 29.1893 128.771 27.312 136.878 27.312C142.339 27.312 147.118 28.208 151.214 30C155.31 31.7067 158.467 34.1387 160.686 37.296C162.99 40.4533 164.142 44.0373 164.142 48.048C164.142 48.4747 163.971 48.8587 163.63 49.2C163.374 49.456 163.033 49.584 162.606 49.584H148.91C148.483 49.584 148.099 49.456 147.758 49.2C147.502 48.8587 147.374 48.4747 147.374 48.048C147.374 46.1707 146.393 44.592 144.43 43.312C142.553 42.032 140.035 41.392 136.878 41.392C134.062 41.392 131.758 41.904 129.966 42.928C128.174 43.952 127.278 45.36 127.278 47.152C127.278 48.8587 128.131 50.1387 129.838 50.992C131.63 51.8453 134.574 52.7413 138.67 53.68C139.609 53.936 140.675 54.2347 141.87 54.576C143.065 54.832 144.345 55.1733 145.71 55.6C151.769 57.392 156.547 59.696 160.046 62.512C163.545 65.328 165.294 69.424 165.294 74.8C165.294 81.1147 162.777 86.064 157.742 89.648C152.793 93.1467 146.094 94.896 137.646 94.896ZM204.584 95.024C197.757 95.024 191.827 93.3173 186.792 89.904C181.843 86.4907 178.301 81.7973 176.168 75.824C174.717 71.5573 173.992 66.5227 173.992 60.72C173.992 55.0027 174.717 50.0533 176.168 45.872C178.216 40.0693 181.757 35.504 186.792 32.176C191.827 28.848 197.757 27.184 204.584 27.184C211.411 27.184 217.384 28.8907 222.504 32.304C227.709 35.7173 231.165 40.0267 232.872 45.232C233.555 47.28 233.896 48.816 233.896 49.84V50.096C233.896 50.864 233.469 51.3333 232.616 51.504L217.896 53.68H217.64C216.872 53.68 216.36 53.2533 216.104 52.4L215.72 50.352C215.123 48.1333 213.8 46.2987 211.752 44.848C209.704 43.3973 207.272 42.672 204.456 42.672C201.725 42.672 199.421 43.3547 197.544 44.72C195.667 46.0853 194.344 47.9627 193.576 50.352C192.637 52.912 192.168 56.4107 192.168 60.848C192.168 65.2853 192.595 68.784 193.448 71.344C194.216 73.904 195.539 75.9093 197.416 77.36C199.379 78.8107 201.725 79.536 204.456 79.536C207.101 79.536 209.405 78.8533 211.368 77.488C213.416 76.0373 214.824 74.0747 215.592 71.6C215.677 71.4293 215.72 71.1733 215.72 70.832C215.805 70.7467 215.848 70.6187 215.848 70.448C215.933 69.424 216.531 68.9973 217.64 69.168L232.36 71.472C233.213 71.6427 233.64 72.112 233.64 72.88C233.64 73.5627 233.384 74.8427 232.872 76.72C231.08 82.4373 227.581 86.9173 222.376 90.16C217.256 93.4027 211.325 95.024 204.584 95.024ZM272.712 95.024C265.544 95.024 259.4 93.1467 254.28 89.392C249.16 85.6373 245.661 80.5173 243.784 74.032C242.589 70.0213 241.992 65.6693 241.992 60.976C241.992 55.9413 242.589 51.4187 243.784 47.408C245.747 41.0933 249.288 36.144 254.408 32.56C259.528 28.976 265.672 27.184 272.84 27.184C279.837 27.184 285.811 28.976 290.76 32.56C295.709 36.0587 299.208 40.9653 301.256 47.28C302.621 51.5467 303.304 56.0267 303.304 60.72C303.304 65.328 302.707 69.6373 301.512 73.648C299.635 80.304 296.136 85.552 291.016 89.392C285.981 93.1467 279.88 95.024 272.712 95.024ZM272.712 79.536C275.528 79.536 277.917 78.6827 279.88 76.976C281.843 75.2693 283.251 72.9227 284.104 69.936C284.787 67.2053 285.128 64.2187 285.128 60.976C285.128 57.392 284.787 54.3627 284.104 51.888C283.165 48.9867 281.715 46.7253 279.752 45.104C277.789 43.4827 275.4 42.672 272.584 42.672C269.683 42.672 267.251 43.4827 265.288 45.104C263.411 46.7253 262.045 48.9867 261.192 51.888C260.509 53.936 260.168 56.9653 260.168 60.976C260.168 64.816 260.467 67.8027 261.064 69.936C261.917 72.9227 263.325 75.2693 265.288 76.976C267.336 78.6827 269.811 79.536 272.712 79.536ZM329.585 94C328.732 94 328.177 93.5733 327.921 92.72L307.441 29.872C307.356 29.7013 307.313 29.488 307.313 29.232C307.313 28.464 307.782 28.08 308.721 28.08H325.233C326.172 28.08 326.769 28.5067 327.025 29.36L337.521 68.144C337.606 68.4 337.734 68.528 337.905 68.528C338.076 68.528 338.204 68.4 338.289 68.144L348.785 29.36C349.041 28.5067 349.638 28.08 350.577 28.08L367.089 28.336C367.601 28.336 367.985 28.5067 368.241 28.848C368.497 29.104 368.54 29.5307 368.369 30.128L348.017 92.72C347.761 93.5733 347.206 94 346.353 94H329.585ZM431.771 54.32C432.283 57.5627 432.454 61.1893 432.283 65.2C432.198 66.224 431.643 66.736 430.619 66.736H391.067C390.555 66.736 390.384 66.9493 390.555 67.376C390.811 69.0827 391.28 70.7893 391.963 72.496C394.182 77.2747 398.704 79.664 405.531 79.664C410.992 79.5787 415.302 77.36 418.459 73.008C418.8 72.496 419.184 72.24 419.611 72.24C419.867 72.24 420.166 72.4107 420.507 72.752L429.723 81.84C430.15 82.2667 430.363 82.6507 430.363 82.992C430.363 83.1627 430.192 83.504 429.851 84.016C427.035 87.5147 423.408 90.2453 418.971 92.208C414.534 94.0853 409.67 95.024 404.379 95.024C397.04 95.024 390.811 93.36 385.691 90.032C380.656 86.704 377.03 82.0533 374.811 76.08C373.019 71.8133 372.123 66.224 372.123 59.312C372.123 54.6187 372.763 50.48 374.043 46.896C376.006 40.8373 379.419 36.016 384.283 32.432C389.232 28.848 395.078 27.056 401.819 27.056C410.352 27.056 417.179 29.5307 422.299 34.48C427.504 39.4293 430.662 46.0427 431.771 54.32ZM401.947 42.672C396.571 42.672 393.03 45.1893 391.323 50.224C390.982 51.3333 390.683 52.6987 390.427 54.32C390.427 54.7467 390.64 54.96 391.067 54.96H413.211C413.723 54.96 413.894 54.7467 413.723 54.32C413.296 51.8453 413.083 50.6507 413.083 50.736C412.315 48.176 410.95 46.2133 408.987 44.848C407.11 43.3973 404.763 42.672 401.947 42.672ZM476.174 27.312C479.246 27.312 481.678 27.9093 483.47 29.104C484.153 29.4453 484.409 30.0853 484.238 31.024L481.55 45.616C481.465 46.64 480.867 46.9387 479.758 46.512C478.478 46.0853 476.985 45.872 475.278 45.872C474.595 45.872 473.657 45.9573 472.462 46.128C469.39 46.384 466.787 47.536 464.654 49.584C462.521 51.5467 461.454 54.192 461.454 57.52V92.464C461.454 92.8907 461.283 93.2747 460.942 93.616C460.686 93.872 460.345 94 459.918 94H444.942C444.515 94 444.131 93.872 443.79 93.616C443.534 93.2747 443.406 92.8907 443.406 92.464V29.744C443.406 29.3173 443.534 28.976 443.79 28.72C444.131 28.3787 444.515 28.208 444.942 28.208H459.918C460.345 28.208 460.686 28.3787 460.942 28.72C461.283 28.976 461.454 29.3173 461.454 29.744V34.608C461.454 34.864 461.539 35.0347 461.71 35.12C461.881 35.2053 462.009 35.1627 462.094 34.992C465.593 29.872 470.286 27.312 476.174 27.312ZM576.143 94C575.29 94 574.735 93.5733 574.479 92.72L570.639 80.176C570.468 79.8347 570.255 79.664 569.999 79.664H538.511C538.255 79.664 538.042 79.8347 537.871 80.176L534.159 92.72C533.903 93.5733 533.348 94 532.495 94H516.239C515.727 94 515.343 93.872 515.087 93.616C514.831 93.2747 514.788 92.8053 514.959 92.208L542.607 5.67999C542.863 4.82666 543.418 4.39999 544.271 4.39999H564.367C565.22 4.39999 565.775 4.82666 566.031 5.67999L593.679 92.208C593.764 92.3787 593.807 92.592 593.807 92.848C593.807 93.616 593.338 94 592.399 94H576.143ZM542.479 64.944C542.394 65.456 542.564 65.712 542.991 65.712H565.519C566.031 65.712 566.202 65.456 566.031 64.944L554.511 26.928C554.426 26.5867 554.298 26.4587 554.127 26.544C553.956 26.544 553.828 26.672 553.743 26.928L542.479 64.944ZM636.674 27.312C639.746 27.312 642.178 27.9093 643.97 29.104C644.653 29.4453 644.909 30.0853 644.738 31.024L642.05 45.616C641.965 46.64 641.367 46.9387 640.258 46.512C638.978 46.0853 637.485 45.872 635.778 45.872C635.095 45.872 634.157 45.9573 632.962 46.128C629.89 46.384 627.287 47.536 625.154 49.584C623.021 51.5467 621.954 54.192 621.954 57.52V92.464C621.954 92.8907 621.783 93.2747 621.442 93.616C621.186 93.872 620.845 94 620.418 94H605.442C605.015 94 604.631 93.872 604.29 93.616C604.034 93.2747 603.906 92.8907 603.906 92.464V29.744C603.906 29.3173 604.034 28.976 604.29 28.72C604.631 28.3787 605.015 28.208 605.442 28.208H620.418C620.845 28.208 621.186 28.3787 621.442 28.72C621.783 28.976 621.954 29.3173 621.954 29.744V34.608C621.954 34.864 622.039 35.0347 622.21 35.12C622.381 35.2053 622.509 35.1627 622.594 34.992C626.093 29.872 630.786 27.312 636.674 27.312ZM691.416 41.136C691.416 41.5627 691.245 41.9467 690.904 42.288C690.648 42.544 690.307 42.672 689.88 42.672H677.592C677.165 42.672 676.952 42.8853 676.952 43.312V70.448C676.952 73.264 677.507 75.3547 678.616 76.72C679.811 78.0853 681.688 78.768 684.248 78.768H688.472C688.899 78.768 689.24 78.9387 689.496 79.28C689.837 79.536 690.008 79.8773 690.008 80.304V92.464C690.008 93.4027 689.496 93.9573 688.472 94.128C684.888 94.2987 682.328 94.384 680.792 94.384C673.709 94.384 668.419 93.232 664.92 90.928C661.421 88.5387 659.629 84.1013 659.544 77.616V43.312C659.544 42.8853 659.331 42.672 658.904 42.672H651.608C651.181 42.672 650.797 42.544 650.456 42.288C650.2 41.9467 650.072 41.5627 650.072 41.136V29.744C650.072 29.3173 650.2 28.976 650.456 28.72C650.797 28.3787 651.181 28.208 651.608 28.208H658.904C659.331 28.208 659.544 27.9947 659.544 27.568V12.336C659.544 11.9093 659.672 11.568 659.928 11.312C660.269 10.9707 660.653 10.8 661.08 10.8H675.416C675.843 10.8 676.184 10.9707 676.44 11.312C676.781 11.568 676.952 11.9093 676.952 12.336V27.568C676.952 27.9947 677.165 28.208 677.592 28.208H689.88C690.307 28.208 690.648 28.3787 690.904 28.72C691.245 28.976 691.416 29.3173 691.416 29.744V41.136ZM712.009 20.784C709.108 20.784 706.676 19.8453 704.713 17.968C702.836 16.0053 701.897 13.5733 701.897 10.672C701.897 7.68533 702.836 5.25333 704.713 3.376C706.59 1.49866 709.022 0.559998 712.009 0.559998C714.996 0.559998 717.428 1.49866 719.305 3.376C721.182 5.25333 722.121 7.68533 722.121 10.672C722.121 13.5733 721.14 16.0053 719.177 17.968C717.3 19.8453 714.91 20.784 712.009 20.784ZM704.329 94C703.902 94 703.518 93.872 703.177 93.616C702.921 93.2747 702.793 92.8907 702.793 92.464V29.616C702.793 29.1893 702.921 28.848 703.177 28.592C703.518 28.2507 703.902 28.08 704.329 28.08H719.305C719.732 28.08 720.073 28.2507 720.329 28.592C720.67 28.848 720.841 29.1893 720.841 29.616V92.464C720.841 92.8907 720.67 93.2747 720.329 93.616C720.073 93.872 719.732 94 719.305 94H704.329ZM761.146 94.896C755.429 94.896 750.437 94.0853 746.17 92.464C741.903 90.8427 738.575 88.5813 736.186 85.68C733.882 82.7787 732.73 79.4933 732.73 75.824V74.544C732.73 74.1173 732.858 73.776 733.114 73.52C733.455 73.1787 733.839 73.008 734.266 73.008H748.474C748.901 73.008 749.242 73.1787 749.498 73.52C749.839 73.776 750.01 74.1173 750.01 74.544V74.672C750.01 76.5493 751.034 78.1707 753.082 79.536C755.215 80.816 757.861 81.456 761.018 81.456C763.919 81.456 766.266 80.9013 768.058 79.792C769.85 78.5973 770.746 77.1467 770.746 75.44C770.746 73.904 769.978 72.752 768.442 71.984C766.906 71.216 764.389 70.4053 760.89 69.552C756.879 68.528 753.722 67.5467 751.418 66.608C745.957 64.7307 741.605 62.4267 738.362 59.696C735.119 56.9653 733.498 53.04 733.498 47.92C733.498 41.6053 735.93 36.6133 740.794 32.944C745.743 29.1893 752.271 27.312 760.378 27.312C765.839 27.312 770.618 28.208 774.714 30C778.81 31.7067 781.967 34.1387 784.186 37.296C786.49 40.4533 787.642 44.0373 787.642 48.048C787.642 48.4747 787.471 48.8587 787.13 49.2C786.874 49.456 786.533 49.584 786.106 49.584H772.41C771.983 49.584 771.599 49.456 771.258 49.2C771.002 48.8587 770.874 48.4747 770.874 48.048C770.874 46.1707 769.893 44.592 767.93 43.312C766.053 42.032 763.535 41.392 760.378 41.392C757.562 41.392 755.258 41.904 753.466 42.928C751.674 43.952 750.778 45.36 750.778 47.152C750.778 48.8587 751.631 50.1387 753.338 50.992C755.13 51.8453 758.074 52.7413 762.17 53.68C763.109 53.936 764.175 54.2347 765.37 54.576C766.565 54.832 767.845 55.1733 769.21 55.6C775.269 57.392 780.047 59.696 783.546 62.512C787.045 65.328 788.794 69.424 788.794 74.8C788.794 81.1147 786.277 86.064 781.242 89.648C776.293 93.1467 769.594 94.896 761.146 94.896ZM836.791 41.136C836.791 41.5627 836.62 41.9467 836.279 42.288C836.023 42.544 835.682 42.672 835.255 42.672H822.967C822.54 42.672 822.327 42.8853 822.327 43.312V70.448C822.327 73.264 822.882 75.3547 823.991 76.72C825.186 78.0853 827.063 78.768 829.623 78.768H833.847C834.274 78.768 834.615 78.9387 834.871 79.28C835.212 79.536 835.383 79.8773 835.383 80.304V92.464C835.383 93.4027 834.871 93.9573 833.847 94.128C830.263 94.2987 827.703 94.384 826.167 94.384C819.084 94.384 813.794 93.232 810.295 90.928C806.796 88.5387 805.004 84.1013 804.919 77.616V43.312C804.919 42.8853 804.706 42.672 804.279 42.672H796.983C796.556 42.672 796.172 42.544 795.831 42.288C795.575 41.9467 795.447 41.5627 795.447 41.136V29.744C795.447 29.3173 795.575 28.976 795.831 28.72C796.172 28.3787 796.556 28.208 796.983 28.208H804.279C804.706 28.208 804.919 27.9947 804.919 27.568V12.336C804.919 11.9093 805.047 11.568 805.303 11.312C805.644 10.9707 806.028 10.8 806.455 10.8H820.791C821.218 10.8 821.559 10.9707 821.815 11.312C822.156 11.568 822.327 11.9093 822.327 12.336V27.568C822.327 27.9947 822.54 28.208 822.967 28.208H835.255C835.682 28.208 836.023 28.3787 836.279 28.72C836.62 28.976 836.791 29.3173 836.791 29.744V41.136ZM873.896 94.896C868.179 94.896 863.187 94.0853 858.92 92.464C854.653 90.8427 851.325 88.5813 848.936 85.68C846.632 82.7787 845.48 79.4933 845.48 75.824V74.544C845.48 74.1173 845.608 73.776 845.864 73.52C846.205 73.1787 846.589 73.008 847.016 73.008H861.224C861.651 73.008 861.992 73.1787 862.248 73.52C862.589 73.776 862.76 74.1173 862.76 74.544V74.672C862.76 76.5493 863.784 78.1707 865.832 79.536C867.965 80.816 870.611 81.456 873.768 81.456C876.669 81.456 879.016 80.9013 880.808 79.792C882.6 78.5973 883.496 77.1467 883.496 75.44C883.496 73.904 882.728 72.752 881.192 71.984C879.656 71.216 877.139 70.4053 873.64 69.552C869.629 68.528 866.472 67.5467 864.168 66.608C858.707 64.7307 854.355 62.4267 851.112 59.696C847.869 56.9653 846.248 53.04 846.248 47.92C846.248 41.6053 848.68 36.6133 853.544 32.944C858.493 29.1893 865.021 27.312 873.128 27.312C878.589 27.312 883.368 28.208 887.464 30C891.56 31.7067 894.717 34.1387 896.936 37.296C899.24 40.4533 900.392 44.0373 900.392 48.048C900.392 48.4747 900.221 48.8587 899.88 49.2C899.624 49.456 899.283 49.584 898.856 49.584H885.16C884.733 49.584 884.349 49.456 884.008 49.2C883.752 48.8587 883.624 48.4747 883.624 48.048C883.624 46.1707 882.643 44.592 880.68 43.312C878.803 42.032 876.285 41.392 873.128 41.392C870.312 41.392 868.008 41.904 866.216 42.928C864.424 43.952 863.528 45.36 863.528 47.152C863.528 48.8587 864.381 50.1387 866.088 50.992C867.88 51.8453 870.824 52.7413 874.92 53.68C875.859 53.936 876.925 54.2347 878.12 54.576C879.315 54.832 880.595 55.1733 881.96 55.6C888.019 57.392 892.797 59.696 896.296 62.512C899.795 65.328 901.544 69.424 901.544 74.8C901.544 81.1147 899.027 86.064 893.992 89.648C889.043 93.1467 882.344 94.896 873.896 94.896Z" fill="url(#paint0_linear_21_82)"/>
<path d="M1.192 93.616L-0.0079999 94.516L0.120572 94.6874L0.292 94.816L1.192 93.616ZM1.192 4.91199L0.131339 3.85134H0.131336L1.192 4.91199ZM51.112 7.856L50.4606 9.20715L50.475 9.21409L50.4895 9.22072L51.112 7.856ZM62.376 17.328L63.6361 16.5142L63.6361 16.5142L62.376 17.328ZM62.376 81.072L63.6361 81.8858H63.6361L62.376 81.072ZM51.112 90.672L51.7437 92.0326L51.7541 92.0276L51.112 90.672ZM44.456 74.544L43.3606 73.5193L43.3516 73.5288L43.3428 73.5386L44.456 74.544ZM48.296 63.92L49.7957 63.9488L49.796 63.9344V63.92H48.296ZM44.584 23.856L43.4708 24.8614L43.4796 24.8712L43.4886 24.8807L44.584 23.856ZM2.344 92.5C2.24189 92.5 2.17369 92.4773 2.092 92.416L0.292 94.816C0.892978 95.2667 1.59278 95.5 2.344 95.5V92.5ZM2.392 92.716C2.33073 92.6343 2.308 92.5661 2.308 92.464H-0.691999C-0.691999 93.2152 -0.458733 93.915 -0.0079999 94.516L2.392 92.716ZM2.308 92.464V5.936H-0.691999V92.464H2.308ZM2.308 5.936C2.308 5.87246 2.31741 5.8629 2.30849 5.88668C2.30414 5.89829 2.29682 5.91394 2.28577 5.93113C2.27471 5.94834 2.26292 5.96239 2.25266 5.97265L0.131336 3.85134C-0.455763 4.43844 -0.691999 5.18795 -0.691999 5.936H2.308ZM2.25266 5.97265C2.31227 5.91304 2.34451 5.89902 2.34521 5.89871C2.34624 5.89825 2.34437 5.89911 2.34102 5.89982C2.33773 5.90051 2.33805 5.89999 2.344 5.89999V2.89999C1.46596 2.89999 0.713705 3.26897 0.131339 3.85134L2.25266 5.97265ZM2.344 5.89999H34.344V2.89999H2.344V5.89999ZM34.344 5.89999C40.5643 5.89999 45.9227 7.01926 50.4606 9.20715L51.7635 6.50484C46.7439 4.08472 40.9237 2.89999 34.344 2.89999V5.89999ZM50.4895 9.22072C55.1188 11.3323 58.641 14.3096 61.116 18.1418L63.6361 16.5142C60.8204 12.1544 56.8332 8.81699 51.7345 6.49127L50.4895 9.22072ZM61.1159 18.1418C63.5888 21.9707 64.844 26.418 64.844 31.536H67.844C67.844 25.902 66.4539 20.8773 63.6361 16.5142L61.1159 18.1418ZM64.844 31.536V66.864H67.844V31.536H64.844ZM64.844 66.864C64.844 71.982 63.5888 76.4293 61.1159 80.2582L63.6361 81.8858C66.4539 77.5227 67.844 72.498 67.844 66.864H64.844ZM61.116 80.2582C58.6376 84.0957 55.1085 87.1191 50.4699 89.3164L51.7541 92.0276C56.8435 89.6169 60.8237 86.2403 63.6361 81.8858L61.116 80.2582ZM50.4803 89.3115C45.9374 91.4207 40.5718 92.5 34.344 92.5V95.5C40.9162 95.5 46.7293 94.3606 51.7437 92.0325L50.4803 89.3115ZM34.344 92.5H2.344V95.5H34.344V92.5ZM17.356 77.872C17.356 78.3166 17.4682 78.9255 17.9553 79.4127C18.4425 79.8998 19.0515 80.012 19.496 80.012V77.012C19.5139 77.012 19.8028 77.0175 20.0767 77.2913C20.3505 77.5652 20.356 77.8541 20.356 77.872H17.356ZM19.496 80.012H34.984V77.012H19.496V80.012ZM34.984 80.012C39.2857 80.012 42.8648 78.5435 45.5692 75.5494L43.3428 73.5386C41.2685 75.8351 38.533 77.012 34.984 77.012V80.012ZM45.5514 75.5687C48.3332 72.5951 49.7049 68.6694 49.7957 63.9488L46.7963 63.8912C46.7164 68.0453 45.5282 71.2022 43.3606 73.5193L45.5514 75.5687ZM49.796 63.92V34.48H46.796V63.92H49.796ZM49.796 34.48C49.796 29.7522 48.4697 25.814 45.6794 22.8313L43.4886 24.8807C45.6477 27.1887 46.796 30.3331 46.796 34.48H49.796ZM45.6972 22.8506C42.9798 19.8421 39.3066 18.388 34.856 18.388V21.388C38.5975 21.388 41.4095 22.5793 43.4708 24.8614L45.6972 22.8506ZM34.856 18.388H19.496V21.388H34.856V18.388ZM19.496 18.388C19.0514 18.388 18.4425 18.5001 17.9553 18.9873C17.4682 19.4745 17.356 20.0835 17.356 20.528H20.356C20.356 20.5459 20.3505 20.8348 20.0767 21.1087C19.8028 21.3825 19.5139 21.388 19.496 21.388V18.388ZM17.356 20.528V77.872H20.356V20.528H17.356ZM81.213 17.968L80.129 19.0048L80.1521 19.0289L80.1762 19.052L81.213 17.968ZM81.213 3.376L82.2737 4.43666L81.213 3.376ZM95.805 3.376L94.7443 4.43666L95.805 3.376ZM95.677 17.968L94.6163 16.9073L95.677 17.968ZM79.677 93.616L78.477 94.516L78.6056 94.6874L78.777 94.816L79.677 93.616ZM79.677 28.592L78.6163 27.5313L79.677 28.592ZM96.829 28.592L95.629 29.492L95.7576 29.6634L95.929 29.792L96.829 28.592ZM96.829 93.616L95.7683 92.5553V92.5553L96.829 93.616ZM88.509 19.284C85.965 19.284 83.9131 18.475 82.2498 16.884L80.1762 19.052C82.4383 21.2157 85.2504 22.284 88.509 22.284V19.284ZM82.297 16.9312C80.706 15.2679 79.897 13.216 79.897 10.672H76.897C76.897 13.9306 77.9653 16.7427 80.129 19.0048L82.297 16.9312ZM79.897 10.672C79.897 8.0289 80.7138 5.99651 82.2737 4.43666L80.1523 2.31534C77.9575 4.51015 76.897 7.34176 76.897 10.672H79.897ZM82.2737 4.43666C83.8335 2.8768 85.8659 2.06 88.509 2.06V-0.940002C85.1788 -0.940002 82.3472 0.120525 80.1523 2.31534L82.2737 4.43666ZM88.509 2.06C91.1521 2.06 93.1845 2.8768 94.7443 4.43666L96.8657 2.31534C94.6708 0.120525 91.8392 -0.940002 88.509 -0.940002V2.06ZM94.7443 4.43666C96.3042 5.99651 97.121 8.0289 97.121 10.672H100.121C100.121 7.34176 99.0605 4.51015 96.8657 2.31534L94.7443 4.43666ZM97.121 10.672C97.121 13.1956 96.2838 15.2399 94.6163 16.9073L96.7377 19.0287C98.9955 16.7708 100.121 13.9511 100.121 10.672H97.121ZM94.6163 16.9073C93.0478 18.4759 91.0531 19.284 88.509 19.284V22.284C91.7675 22.284 94.5515 21.2148 96.7377 19.0287L94.6163 16.9073ZM80.829 92.5C80.7269 92.5 80.6587 92.4773 80.577 92.416L78.777 94.816C79.378 95.2667 80.0778 95.5 80.829 95.5V92.5ZM80.877 92.716C80.8157 92.6343 80.793 92.5661 80.793 92.464H77.793C77.793 93.2152 78.0263 93.915 78.477 94.516L80.877 92.716ZM80.793 92.464V29.616H77.793V92.464H80.793ZM80.793 29.616C80.793 29.5525 80.8024 29.5429 80.7935 29.5667C80.7891 29.5783 80.7818 29.5939 80.7708 29.6111C80.7597 29.6283 80.7479 29.6424 80.7377 29.6527L78.6163 27.5313C78.0292 28.1184 77.793 28.8679 77.793 29.616H80.793ZM80.7377 29.6527C80.7973 29.593 80.8295 29.579 80.8302 29.5787C80.8312 29.5783 80.8294 29.5791 80.826 29.5798C80.8227 29.5805 80.8231 29.58 80.829 29.58V26.58C79.951 26.58 79.1987 26.949 78.6163 27.5313L80.7377 29.6527ZM80.829 29.58H95.805V26.58H80.829V29.58ZM95.805 29.58C95.8133 29.58 95.7713 29.5802 95.7102 29.5496C95.6491 29.5191 95.624 29.4854 95.629 29.492L98.029 27.692C97.4897 26.973 96.7038 26.58 95.805 26.58V29.58ZM95.929 29.792C95.9356 29.7969 95.9019 29.7719 95.8714 29.7108C95.8408 29.6497 95.841 29.6077 95.841 29.616H98.841C98.841 28.7172 98.448 27.9313 97.729 27.392L95.929 29.792ZM95.841 29.616V92.464H98.841V29.616H95.841ZM95.841 92.464C95.841 92.4699 95.8405 92.4703 95.8412 92.467C95.8419 92.4636 95.8427 92.4618 95.8423 92.4628C95.842 92.4635 95.8279 92.4957 95.7683 92.5553L97.8897 94.6767C98.472 94.0943 98.841 93.342 98.841 92.464H95.841ZM95.7683 92.5553C95.7786 92.5451 95.7926 92.5333 95.8099 92.5222C95.827 92.5112 95.8427 92.5039 95.8543 92.4995C95.8781 92.4906 95.8685 92.5 95.805 92.5V95.5C96.553 95.5 97.3026 95.2638 97.8897 94.6767L95.7683 92.5553ZM95.805 92.5H80.829V95.5H95.805V92.5ZM122.67 92.464L122.137 93.8662L122.67 92.464ZM112.686 85.68L111.511 86.6128L111.52 86.6233L111.528 86.6336L112.686 85.68ZM109.614 73.52L108.553 72.4593H108.553L109.614 73.52ZM125.998 73.52L124.798 74.42L124.927 74.5914L125.098 74.72L125.998 73.52ZM129.582 79.536L128.75 80.7841L128.78 80.8039L128.81 80.8222L129.582 79.536ZM144.558 79.792L145.348 81.0674L145.369 81.0541L145.39 81.0401L144.558 79.792ZM137.39 69.552L137.019 71.0054L137.027 71.0074L137.035 71.0093L137.39 69.552ZM127.918 66.608L128.484 65.2189L128.445 65.2031L128.406 65.1895L127.918 66.608ZM114.862 59.696L113.896 60.8434L114.862 59.696ZM117.294 32.944L118.197 34.1415L118.201 34.139L117.294 32.944ZM151.214 30L150.613 31.3742L150.625 31.3795L150.637 31.3846L151.214 30ZM160.686 37.296L159.459 38.1584L159.466 38.1694L159.474 38.1802L160.686 37.296ZM163.63 49.2L162.569 48.1393L162.569 48.1393L163.63 49.2ZM147.758 49.2L146.558 50.1L146.687 50.2714L146.858 50.4L147.758 49.2ZM144.43 43.312L143.585 44.5513L143.598 44.56L143.611 44.5684L144.43 43.312ZM129.838 50.992L129.167 52.3336L129.18 52.3401L129.193 52.3463L129.838 50.992ZM138.67 53.68L139.065 52.2328L139.035 52.2248L139.005 52.2179L138.67 53.68ZM141.87 54.576L141.458 56.0183L141.506 56.0321L141.556 56.0427L141.87 54.576ZM145.71 55.6L145.263 57.0317L145.274 57.0351L145.285 57.0384L145.71 55.6ZM160.046 62.512L159.105 63.6805L160.046 62.512ZM157.742 89.648L158.608 90.8729L158.612 90.87L157.742 89.648ZM137.646 93.396C132.067 93.396 127.262 92.6044 123.203 91.0618L122.137 93.8662C126.611 95.5662 131.791 96.396 137.646 96.396V93.396ZM123.203 91.0618C119.128 89.5134 116.035 87.3874 113.844 84.7264L111.528 86.6336C114.115 89.7753 117.679 92.172 122.137 93.8662L123.203 91.0618ZM113.861 84.7472C111.765 82.1083 110.73 79.151 110.73 75.824H107.73C107.73 79.8356 108.999 83.449 111.511 86.6128L113.861 84.7472ZM110.73 75.824V74.544H107.73V75.824H110.73ZM110.73 74.544C110.73 74.4805 110.739 74.4709 110.73 74.4947C110.726 74.5063 110.719 74.5219 110.708 74.5391C110.697 74.5564 110.685 74.5704 110.675 74.5807L108.553 72.4593C107.966 73.0464 107.73 73.796 107.73 74.544H110.73ZM110.675 74.5807C110.734 74.521 110.767 74.507 110.767 74.5067C110.768 74.5063 110.766 74.5071 110.763 74.5078C110.76 74.5085 110.76 74.508 110.766 74.508V71.508C109.888 71.508 109.136 71.877 108.553 72.4593L110.675 74.5807ZM110.766 74.508H124.974V71.508H110.766V74.508ZM124.974 74.508C124.982 74.508 124.94 74.5082 124.879 74.4776C124.818 74.4471 124.793 74.4134 124.798 74.42L127.198 72.62C126.659 71.901 125.873 71.508 124.974 71.508V74.508ZM125.098 74.72C125.105 74.7249 125.071 74.6999 125.04 74.6388C125.01 74.5777 125.01 74.5358 125.01 74.544H128.01C128.01 73.6452 127.617 72.8593 126.898 72.32L125.098 74.72ZM125.01 74.544V74.672H128.01V74.544H125.01ZM125.01 74.672C125.01 77.2029 126.429 79.237 128.75 80.7841L130.414 78.2879C128.639 77.1043 128.01 75.8958 128.01 74.672H125.01ZM128.81 80.8222C131.232 82.2751 134.161 82.956 137.518 82.956V79.956C134.56 79.956 132.199 79.3569 130.354 78.2498L128.81 80.8222ZM137.518 82.956C140.597 82.956 143.245 82.3689 145.348 81.0674L143.768 78.5166C142.287 79.4337 140.241 79.956 137.518 79.956V82.956ZM145.39 81.0401C147.476 79.6495 148.746 77.7804 148.746 75.44H145.746C145.746 76.5129 145.224 77.5451 143.726 78.5439L145.39 81.0401ZM148.746 75.44C148.746 74.4095 148.484 73.4409 147.918 72.5919C147.358 71.7523 146.559 71.1153 145.613 70.6424L144.271 73.3256C144.861 73.6207 145.214 73.9436 145.422 74.2561C145.624 74.5591 145.746 74.9345 145.746 75.44H148.746ZM145.613 70.6424C143.917 69.7946 141.261 68.9523 137.745 68.0947L137.035 71.0093C140.516 71.8584 142.895 72.6374 144.271 73.3256L145.613 70.6424ZM137.761 68.0986C133.779 67.082 130.697 66.1204 128.484 65.2189L127.352 67.9971C129.747 68.9729 132.979 69.974 137.019 71.0054L137.761 68.0986ZM128.406 65.1895C123.06 63.3519 118.888 61.1256 115.828 58.5486L113.896 60.8434C117.321 63.7277 121.853 66.1094 127.43 68.0265L128.406 65.1895ZM115.828 58.5486C112.994 56.1622 111.498 52.6985 111.498 47.92H108.498C108.498 53.3814 110.244 57.7685 113.896 60.8434L115.828 58.5486ZM111.498 47.92C111.498 42.0559 113.725 37.5155 118.197 34.1415L116.391 31.7465C111.135 35.7112 108.498 41.1548 108.498 47.92H111.498ZM118.201 34.139C122.819 30.6352 128.999 28.812 136.878 28.812V25.812C128.544 25.812 121.667 27.7435 116.387 31.749L118.201 34.139ZM136.878 28.812C142.177 28.812 146.743 29.6814 150.613 31.3742L151.815 28.6258C147.493 26.7346 142.502 25.812 136.878 25.812V28.812ZM150.637 31.3846C154.511 32.9989 157.426 35.2663 159.459 38.1584L161.913 36.4336C159.508 33.011 156.109 30.4144 151.791 28.6154L150.637 31.3846ZM159.474 38.1802C161.586 41.0737 162.642 44.3463 162.642 48.048H165.642C165.642 43.7284 164.394 39.833 161.898 36.4118L159.474 38.1802ZM162.642 48.048C162.642 48.0539 162.641 48.0543 162.642 48.051C162.643 48.0476 162.644 48.0458 162.643 48.0468C162.643 48.0475 162.629 48.0797 162.569 48.1393L164.691 50.2607C165.273 49.6783 165.642 48.926 165.642 48.048H162.642ZM162.569 48.1393C162.58 48.1291 162.594 48.1173 162.611 48.1062C162.628 48.0952 162.644 48.0879 162.655 48.0835C162.679 48.0746 162.67 48.084 162.606 48.084V51.084C163.354 51.084 164.104 50.8478 164.691 50.2607L162.569 48.1393ZM162.606 48.084H148.91V51.084H162.606V48.084ZM148.91 48.084C148.808 48.084 148.74 48.0613 148.658 48L146.858 50.4C147.459 50.8507 148.159 51.084 148.91 51.084V48.084ZM148.958 48.3C148.897 48.2183 148.874 48.1501 148.874 48.048H145.874C145.874 48.7992 146.107 49.499 146.558 50.1L148.958 48.3ZM148.874 48.048C148.874 45.5355 147.517 43.5342 145.249 42.0556L143.611 44.5684C145.269 45.6498 145.874 46.8058 145.874 48.048H148.874ZM145.275 42.0727C143.069 40.5684 140.223 39.892 136.878 39.892V42.892C139.848 42.892 142.037 43.4956 143.585 44.5513L145.275 42.0727ZM136.878 39.892C133.892 39.892 131.308 40.4334 129.222 41.6256L130.71 44.2304C132.208 43.3746 134.232 42.892 136.878 42.892V39.892ZM129.222 41.6256C127.047 42.8681 125.778 44.7305 125.778 47.152H128.778C128.778 45.9895 129.301 45.0359 130.71 44.2304L129.222 41.6256ZM125.778 47.152C125.778 48.2678 126.061 49.3111 126.67 50.224C127.272 51.1276 128.136 51.818 129.167 52.3336L130.509 49.6504C129.833 49.3127 129.417 48.9363 129.166 48.5599C128.921 48.1929 128.778 47.7429 128.778 47.152H125.778ZM129.193 52.3463C131.143 53.2748 134.223 54.1998 138.335 55.1421L139.005 52.2179C134.925 51.2829 132.117 50.4159 130.483 49.6377L129.193 52.3463ZM138.275 55.1271C139.207 55.3812 140.268 55.6782 141.458 56.0183L142.282 53.1337C141.083 52.7912 140.01 52.4908 139.065 52.2328L138.275 55.1271ZM141.556 56.0427C142.699 56.2876 143.934 56.6165 145.263 57.0317L146.157 54.1683C144.755 53.7302 143.431 53.3764 142.184 53.1093L141.556 56.0427ZM145.285 57.0384C151.226 58.7958 155.808 61.0263 159.105 63.6805L160.987 61.3435C157.287 58.3657 152.311 55.9882 146.135 54.1616L145.285 57.0384ZM159.105 63.6805C162.18 66.1548 163.794 69.7787 163.794 74.8H166.794C166.794 69.0693 164.91 64.5012 160.987 61.3435L159.105 63.6805ZM163.794 74.8C163.794 80.642 161.501 85.1306 156.872 88.426L158.612 90.87C164.052 86.9974 166.794 81.5874 166.794 74.8H163.794ZM156.876 88.4231C152.262 91.6847 145.902 93.396 137.646 93.396V96.396C146.286 96.396 153.323 94.6086 158.608 90.8729L156.876 88.4231ZM186.792 89.904L185.94 91.1389L185.95 91.1456L186.792 89.904ZM176.168 75.824L174.748 76.3069L174.752 76.3177L174.755 76.3285L176.168 75.824ZM176.168 45.872L174.753 45.3728L174.751 45.3803L176.168 45.872ZM186.792 32.176L187.619 33.4273L186.792 32.176ZM222.504 32.304L221.672 33.5521L221.681 33.5584L222.504 32.304ZM232.872 45.232L231.447 45.6993L231.449 45.7063L232.872 45.232ZM232.616 51.504L232.835 52.9879L232.873 52.9823L232.91 52.9749L232.616 51.504ZM217.896 53.68V55.18H218.006L218.115 55.1639L217.896 53.68ZM216.104 52.4L214.63 52.6764L214.644 52.7547L214.667 52.831L216.104 52.4ZM215.72 50.352L217.194 50.0756L217.184 50.0183L217.168 49.962L215.72 50.352ZM211.752 44.848L210.885 46.072L211.752 44.848ZM193.576 50.352L194.984 50.8684L194.995 50.8399L195.004 50.811L193.576 50.352ZM193.448 71.344L194.885 70.913L194.878 70.8912L194.871 70.8697L193.448 71.344ZM197.416 77.36L196.499 78.5469L196.512 78.5567L196.524 78.5663L197.416 77.36ZM211.368 77.488L212.225 78.7194L212.235 78.712L211.368 77.488ZM215.592 71.6L214.25 70.9292L214.196 71.0386L214.159 71.1554L215.592 71.6ZM215.72 70.832L214.659 69.7713L214.22 70.2107V70.832H215.72ZM215.848 70.448L214.353 70.3234L214.348 70.3856V70.448H215.848ZM217.64 69.168L217.872 67.686L217.868 67.6854L217.64 69.168ZM232.36 71.472L232.654 70.0011L232.623 69.9949L232.592 69.99L232.36 71.472ZM232.872 76.72L234.303 77.1686L234.312 77.1418L234.319 77.1147L232.872 76.72ZM222.376 90.16L221.583 88.8868L221.573 88.8928L222.376 90.16ZM204.584 93.524C198.019 93.524 192.39 91.8872 187.634 88.6624L185.95 91.1456C191.263 94.7475 197.495 96.524 204.584 96.524V93.524ZM187.644 88.6692C182.968 85.4446 179.614 81.0139 177.581 75.3195L174.755 76.3285C176.988 82.5808 180.717 87.5367 185.94 91.1388L187.644 88.6692ZM177.588 75.3411C176.203 71.2674 175.492 66.4032 175.492 60.72H172.492C172.492 66.6421 173.232 71.8473 174.748 76.3069L177.588 75.3411ZM175.492 60.72C175.492 55.1237 176.203 50.3484 177.585 46.3637L174.751 45.3803C173.232 49.7583 172.492 54.8816 172.492 60.72H175.492ZM177.582 46.3712C179.524 40.87 182.863 36.5715 187.619 33.4273L185.965 30.9247C180.652 34.4365 176.908 39.2687 174.754 45.3728L177.582 46.3712ZM187.619 33.4273C192.377 30.2822 198.012 28.684 204.584 28.684V25.684C197.503 25.684 191.276 27.4138 185.965 30.9247L187.619 33.4273ZM204.584 28.684C211.148 28.684 216.825 30.3207 221.672 33.5521L223.336 31.0559C217.943 27.4606 211.673 25.684 204.584 25.684V28.684ZM221.681 33.5584C226.643 36.812 229.86 40.8606 231.447 45.6993L234.297 44.7647C232.47 39.1927 228.775 34.6226 223.327 31.0496L221.681 33.5584ZM231.449 45.7063C232.124 47.7322 232.396 49.0734 232.396 49.84H235.396C235.396 48.5586 234.985 46.8278 234.295 44.7577L231.449 45.7063ZM232.396 49.84V50.096H235.396V49.84H232.396ZM232.396 50.096C232.396 50.1498 232.389 50.1543 232.398 50.127C232.403 50.1134 232.411 50.0947 232.423 50.0735C232.436 50.0521 232.45 50.0322 232.466 50.015C232.499 49.9789 232.521 49.9706 232.505 49.9784C232.487 49.9875 232.432 50.0112 232.322 50.0331L232.91 52.9749C233.536 52.8496 234.19 52.5788 234.686 52.033C235.201 51.4666 235.396 50.7704 235.396 50.096H232.396ZM232.397 50.0201L217.677 52.1961L218.115 55.1639L232.835 52.9879L232.397 50.0201ZM217.896 52.18H217.64V55.18H217.896V52.18ZM217.64 52.18C217.587 52.18 217.574 52.1728 217.586 52.177C217.602 52.182 217.623 52.1931 217.64 52.2077C217.675 52.2366 217.612 52.2066 217.541 51.969L214.667 52.831C214.852 53.4468 215.173 54.0568 215.72 54.5123C216.286 54.984 216.962 55.18 217.64 55.18V52.18ZM217.578 52.1236L217.194 50.0756L214.246 50.6284L214.63 52.6764L217.578 52.1236ZM217.168 49.962C216.472 47.3742 214.924 45.2565 212.619 43.624L210.885 46.072C212.676 47.3408 213.774 48.8924 214.272 50.742L217.168 49.962ZM212.619 43.624C210.287 41.9722 207.543 41.172 204.456 41.172V44.172C207.001 44.172 209.121 44.8225 210.885 46.072L212.619 43.624ZM204.456 41.172C201.466 41.172 198.838 41.9238 196.662 43.5069L198.426 45.9331C200.004 44.7855 201.985 44.172 204.456 44.172V41.172ZM196.662 43.5069C194.506 45.0748 193.005 47.2268 192.148 49.893L195.004 50.811C195.683 48.6986 196.827 47.0959 198.426 45.9331L196.662 43.5069ZM192.168 49.8356C191.142 52.6322 190.668 56.3308 190.668 60.848H193.668C193.668 56.4905 194.132 53.1918 194.984 50.8684L192.168 49.8356ZM190.668 60.848C190.668 65.3567 191.098 69.0387 192.025 71.8183L194.871 70.8697C194.091 68.5293 193.668 65.2139 193.668 60.848H190.668ZM192.011 71.775C192.857 74.5955 194.343 76.8809 196.499 78.5469L198.333 76.1731C196.735 74.9378 195.575 73.2125 194.885 70.913L192.011 71.775ZM196.524 78.5663C198.776 80.2302 201.444 81.036 204.456 81.036V78.036C202.006 78.036 199.982 77.3911 198.308 76.1537L196.524 78.5663ZM204.456 81.036C207.374 81.036 209.984 80.2781 212.225 78.7194L210.511 76.2566C208.827 77.4286 206.829 78.036 204.456 78.036V81.036ZM212.235 78.712C214.561 77.0642 216.162 74.8232 217.025 72.0446L214.159 71.1554C213.486 73.3261 212.271 75.0104 210.501 76.264L212.235 78.712ZM216.934 72.2708C217.176 71.7867 217.22 71.2499 217.22 70.832H214.22C214.22 70.8865 214.218 70.9305 214.216 70.9651C214.213 70.9999 214.21 71.0221 214.208 71.0334C214.206 71.045 214.206 71.0411 214.211 71.025C214.216 71.0091 214.227 70.9751 214.25 70.9292L216.934 72.2708ZM216.781 71.8927C217.247 71.4268 217.348 70.8499 217.348 70.448H214.348C214.348 70.3874 214.364 70.0665 214.659 69.7713L216.781 71.8927ZM217.343 70.5726C217.348 70.5117 217.355 70.4712 217.361 70.4474C217.367 70.4239 217.37 70.4202 217.365 70.4307C217.36 70.4418 217.347 70.4657 217.323 70.4955C217.298 70.5258 217.267 70.5553 217.232 70.5806C217.197 70.6057 217.165 70.6208 217.144 70.6291C217.123 70.6371 217.115 70.6371 217.127 70.6354C217.138 70.6337 217.167 70.6306 217.215 70.6316C217.264 70.6327 217.329 70.6378 217.412 70.6506L217.868 67.6854C217.127 67.5714 216.239 67.6033 215.488 68.1394C214.704 68.6992 214.417 69.5553 214.353 70.3234L217.343 70.5726ZM217.408 70.65L232.128 72.954L232.592 69.99L217.872 67.686L217.408 70.65ZM232.066 72.9429C232.176 72.9648 232.231 72.9885 232.249 72.9976C232.265 73.0054 232.243 72.9971 232.21 72.961C232.194 72.9437 232.18 72.9239 232.167 72.9025C232.155 72.8813 232.147 72.8626 232.142 72.849C232.133 72.8217 232.14 72.8262 232.14 72.88H235.14C235.14 72.2056 234.945 71.5094 234.43 70.943C233.934 70.3972 233.28 70.1264 232.654 70.0011L232.066 72.9429ZM232.14 72.88C232.14 73.3309 231.944 74.4216 231.425 76.3253L234.319 77.1147C234.824 75.2638 235.14 73.7945 235.14 72.88H232.14ZM231.441 76.2714C229.759 81.6376 226.492 85.829 221.583 88.8868L223.169 91.4332C228.671 88.0057 232.401 83.237 234.303 77.1686L231.441 76.2714ZM221.573 88.8928C216.72 91.9667 211.074 93.524 204.584 93.524V96.524C211.577 96.524 217.792 94.8387 223.179 91.4272L221.573 88.8928ZM254.28 89.392L253.393 90.6016L254.28 89.392ZM243.784 74.032L245.225 73.6149L245.222 73.6038L243.784 74.032ZM243.784 47.408L242.352 46.9628L242.349 46.9713L242.346 46.9798L243.784 47.408ZM290.76 32.56L289.88 33.7749L289.887 33.7799L289.894 33.7849L290.76 32.56ZM301.256 47.28L302.685 46.8228L302.683 46.8172L301.256 47.28ZM301.512 73.648L300.074 73.2198L300.071 73.2303L300.068 73.2408L301.512 73.648ZM291.016 89.392L291.913 90.5944L291.916 90.592L291.016 89.392ZM279.88 76.976L280.864 78.1079L279.88 76.976ZM284.104 69.936L285.546 70.3481L285.553 70.3241L285.559 70.2998L284.104 69.936ZM284.104 51.888L285.55 51.4891L285.541 51.4575L285.531 51.4263L284.104 51.888ZM279.752 45.104L280.707 43.9476L279.752 45.104ZM265.288 45.104L264.333 43.9476L264.32 43.958L264.308 43.9688L265.288 45.104ZM261.192 51.888L262.615 52.3623L262.624 52.3369L262.631 52.3112L261.192 51.888ZM261.064 69.936L259.62 70.3404L259.622 70.3481L261.064 69.936ZM265.288 76.976L264.304 78.1079L264.316 78.1182L264.328 78.1283L265.288 76.976ZM272.712 93.524C265.82 93.524 259.997 91.7245 255.167 88.1824L253.393 90.6016C258.803 94.5689 265.268 96.524 272.712 96.524V93.524ZM255.167 88.1824C250.332 84.6364 247.016 79.8037 245.225 73.6149L242.343 74.4491C244.306 81.2309 247.988 86.6383 253.393 90.6016L255.167 88.1824ZM245.222 73.6038C244.073 69.7478 243.492 65.5417 243.492 60.976H240.492C240.492 65.797 241.106 70.2949 242.346 74.4602L245.222 73.6038ZM243.492 60.976C243.492 56.0579 244.076 51.6831 245.222 47.8362L242.346 46.9798C241.103 51.1543 240.492 55.8247 240.492 60.976H243.492ZM245.216 47.8532C247.087 41.8362 250.437 37.1707 255.268 33.7888L253.548 31.3311C248.139 35.1173 244.407 40.3505 242.352 46.9628L245.216 47.8532ZM255.268 33.7888C260.1 30.4064 265.933 28.684 272.84 28.684V25.684C265.411 25.684 258.956 27.5456 253.548 31.3311L255.268 33.7888ZM272.84 28.684C279.569 28.684 285.223 30.4023 289.88 33.7749L291.64 31.3451C286.398 27.5497 280.106 25.684 272.84 25.684V28.684ZM289.894 33.7849C294.554 37.0787 297.871 41.705 299.829 47.7428L302.683 46.8172C300.545 40.2256 296.865 35.0386 291.626 31.3351L289.894 33.7849ZM299.827 47.7372C301.143 51.8491 301.804 56.1744 301.804 60.72H304.804C304.804 55.8789 304.099 51.2442 302.685 46.8228L299.827 47.7372ZM301.804 60.72C301.804 65.1975 301.224 69.3614 300.074 73.2198L302.95 74.0762C304.19 69.9133 304.804 65.4585 304.804 60.72H301.804ZM300.068 73.2408C298.273 79.6072 294.951 84.5657 290.116 88.192L291.916 90.592C297.321 86.5383 300.997 81.0008 302.956 74.0552L300.068 73.2408ZM290.119 88.1896C285.379 91.7244 279.604 93.524 272.712 93.524V96.524C280.156 96.524 286.583 94.569 291.913 90.5944L290.119 88.1896ZM272.712 81.036C275.857 81.036 278.605 80.0723 280.864 78.1079L278.896 75.8441C277.229 77.293 275.199 78.036 272.712 78.036V81.036ZM280.864 78.1079C283.086 76.1763 284.629 73.559 285.546 70.3481L282.662 69.5239C281.872 72.2864 280.6 74.3623 278.896 75.8441L280.864 78.1079ZM285.559 70.2998C286.276 67.4338 286.628 64.3232 286.628 60.976H283.628C283.628 64.1142 283.298 66.9769 282.649 69.5722L285.559 70.2998ZM286.628 60.976C286.628 57.3061 286.28 54.1336 285.55 51.4891L282.658 52.2869C283.294 54.5917 283.628 57.4779 283.628 60.976H286.628ZM285.531 51.4263C284.522 48.3075 282.93 45.7841 280.707 43.9476L278.797 46.2604C280.499 47.6666 281.809 49.6658 282.677 52.3497L285.531 51.4263ZM280.707 43.9476C278.447 42.0802 275.709 41.172 272.584 41.172V44.172C275.091 44.172 277.132 44.8851 278.797 46.2604L280.707 43.9476ZM272.584 41.172C269.385 41.172 266.601 42.0734 264.333 43.9476L266.243 46.2604C267.9 44.8919 269.98 44.172 272.584 44.172V41.172ZM264.308 43.9688C262.169 45.8161 260.67 48.3479 259.753 51.4647L262.631 52.3112C263.421 49.6254 264.653 47.6346 266.268 46.2392L264.308 43.9688ZM259.769 51.4137C259.009 53.6941 258.668 56.9175 258.668 60.976H261.668C261.668 57.0132 262.01 54.1779 262.615 52.3623L259.769 51.4137ZM258.668 60.976C258.668 64.8684 258.968 68.0135 259.62 70.3404L262.508 69.5316C261.965 67.5919 261.668 64.7636 261.668 60.976H258.668ZM259.622 70.3481C260.539 73.559 262.082 76.1763 264.304 78.1079L266.272 75.8441C264.568 74.3623 263.296 72.2864 262.506 69.5239L259.622 70.3481ZM264.328 78.1283C266.67 80.08 269.493 81.036 272.712 81.036V78.036C270.128 78.036 268.002 77.2853 266.248 75.8237L264.328 78.1283ZM327.921 92.72L329.358 92.289L329.353 92.2721L329.347 92.2553L327.921 92.72ZM307.441 29.872L308.867 29.4072L308.833 29.3011L308.783 29.2012L307.441 29.872ZM327.025 29.36L328.473 28.9682L328.468 28.9485L328.462 28.929L327.025 29.36ZM337.521 68.144L336.073 68.5358L336.084 68.5775L336.098 68.6183L337.521 68.144ZM338.289 68.144L339.712 68.6183L339.726 68.5774L339.737 68.5358L338.289 68.144ZM348.785 29.36L347.348 28.929L347.342 28.9485L347.337 28.9682L348.785 29.36ZM350.577 28.08L350.6 26.5802L350.589 26.58H350.577V28.08ZM367.089 28.336L367.066 29.8358L367.077 29.836H367.089V28.336ZM368.241 28.848L367.041 29.748L367.105 29.8333L367.18 29.9087L368.241 28.848ZM368.369 30.128L369.796 30.5918L369.804 30.5661L369.811 30.5401L368.369 30.128ZM348.017 92.72L346.591 92.2562L346.585 92.2725L346.58 92.289L348.017 92.72ZM329.585 92.5C329.496 92.5 329.451 92.4889 329.436 92.4845C329.424 92.481 329.431 92.4817 329.444 92.4911C329.476 92.516 329.42 92.4971 329.358 92.289L326.484 93.151C326.678 93.7962 327.027 94.4173 327.614 94.8689C328.207 95.3251 328.902 95.5 329.585 95.5V92.5ZM329.347 92.2553L308.867 29.4072L306.015 30.3367L326.495 93.1847L329.347 92.2553ZM308.783 29.2012C308.807 29.2504 308.815 29.2837 308.816 29.2898C308.817 29.2952 308.813 29.278 308.813 29.232H305.813C305.813 29.645 305.881 30.1052 306.099 30.5428L308.783 29.2012ZM308.813 29.232C308.813 29.1899 308.82 29.2214 308.79 29.2939C308.757 29.3756 308.696 29.4622 308.615 29.5289C308.54 29.5905 308.486 29.6028 308.5 29.5991C308.516 29.5946 308.584 29.58 308.721 29.58V26.58C308.085 26.58 307.33 26.7039 306.715 27.2071C306.043 27.7573 305.813 28.5284 305.813 29.232H308.813ZM308.721 29.58H325.233V26.58H308.721V29.58ZM325.233 29.58C325.477 29.58 325.532 29.6339 325.513 29.6206C325.508 29.6166 325.51 29.616 325.521 29.632C325.533 29.6507 325.56 29.698 325.588 29.791L328.462 28.929C328.259 28.2538 327.88 27.6246 327.257 27.1794C326.641 26.7395 325.928 26.58 325.233 26.58V29.58ZM325.577 29.7518L336.073 68.5358L338.969 67.7522L328.473 28.9682L325.577 29.7518ZM336.098 68.6183C336.249 69.0703 336.738 70.028 337.905 70.028V67.028C338.243 67.028 338.543 67.173 338.742 67.3713C338.827 67.4562 338.877 67.5347 338.904 67.5835C338.931 67.6325 338.942 67.6648 338.944 67.6696L336.098 68.6183ZM337.905 70.028C339.072 70.028 339.561 69.0703 339.712 68.6183L336.866 67.6697C336.868 67.6648 336.879 67.6325 336.906 67.5835C336.933 67.5347 336.983 67.4562 337.068 67.3713C337.267 67.173 337.566 67.028 337.905 67.028V70.028ZM339.737 68.5358L350.233 29.7518L347.337 28.9682L336.841 67.7522L339.737 68.5358ZM350.222 29.791C350.25 29.698 350.277 29.6507 350.289 29.632C350.3 29.616 350.302 29.6166 350.297 29.6206C350.278 29.6339 350.333 29.58 350.577 29.58V26.58C349.882 26.58 349.169 26.7395 348.553 27.1794C347.93 27.6246 347.551 28.2538 347.348 28.929L350.222 29.791ZM350.554 29.5798L367.066 29.8358L367.112 26.8362L350.6 26.5802L350.554 29.5798ZM367.089 29.836C367.18 29.836 367.189 29.8511 367.152 29.8347C367.133 29.8266 367.111 29.8136 367.088 29.7953C367.065 29.7771 367.05 29.7596 367.041 29.748L369.441 27.948C368.844 27.1514 367.967 26.836 367.089 26.836V29.836ZM367.18 29.9087C367.108 29.8365 367.054 29.7542 367.019 29.6732C366.985 29.5952 366.975 29.5354 366.972 29.5093C366.97 29.4845 366.973 29.4875 366.969 29.526C366.964 29.564 366.952 29.6262 366.927 29.7159L369.811 30.5401C370.021 29.8058 370.161 28.6471 369.302 27.7873L367.18 29.9087ZM366.943 29.6642L346.591 92.2562L349.443 93.1838L369.796 30.5918L366.943 29.6642ZM346.58 92.289C346.518 92.4971 346.462 92.516 346.494 92.4911C346.507 92.4817 346.514 92.481 346.502 92.4845C346.487 92.4889 346.442 92.5 346.353 92.5V95.5C347.036 95.5 347.731 95.3251 348.324 94.8689C348.911 94.4173 349.26 93.7962 349.454 93.151L346.58 92.289ZM346.353 92.5H329.585V95.5H346.353V92.5ZM431.771 54.32L430.284 54.5192L430.287 54.5366L430.289 54.5539L431.771 54.32ZM432.283 65.2L433.778 65.3246L433.78 65.2942L433.782 65.2638L432.283 65.2ZM390.555 67.376L392.038 67.1535L392.013 66.9809L391.948 66.8189L390.555 67.376ZM391.963 72.496L390.57 73.0531L390.585 73.0908L390.602 73.1277L391.963 72.496ZM405.531 79.664V81.164H405.543L405.554 81.1638L405.531 79.664ZM418.459 73.008L419.673 73.8888L419.691 73.8648L419.707 73.84L418.459 73.008ZM420.507 72.752L419.446 73.8127L419.454 73.8201L420.507 72.752ZM429.723 81.84L430.784 80.7793L430.776 80.7719L429.723 81.84ZM429.851 84.016L431.02 84.9565L431.062 84.9041L431.099 84.8481L429.851 84.016ZM418.971 92.208L419.555 93.5894L419.567 93.5847L419.578 93.5798L418.971 92.208ZM385.691 90.032L384.864 91.2834L384.874 91.2897L385.691 90.032ZM374.811 76.08L376.217 75.5577L376.206 75.5282L376.194 75.4992L374.811 76.08ZM374.043 46.896L375.456 47.4005L375.463 47.3795L375.47 47.3583L374.043 46.896ZM384.283 32.432L383.403 31.217L383.393 31.2244L384.283 32.432ZM422.299 34.48L421.256 35.5585L421.265 35.567L422.299 34.48ZM391.323 50.224L389.902 49.7424L389.896 49.7626L389.889 49.7829L391.323 50.224ZM390.427 54.32L388.945 54.0861L388.927 54.2023V54.32H390.427ZM413.723 54.32L412.245 54.5749L412.272 54.7305L412.33 54.8771L413.723 54.32ZM413.083 50.736L411.646 51.167L414.583 50.736H413.083ZM408.987 44.848L408.07 46.0349L408.1 46.0579L408.13 46.0794L408.987 44.848ZM430.289 54.5539C430.783 57.6793 430.952 61.204 430.784 65.1362L433.782 65.2638C433.956 61.1747 433.783 57.446 433.253 54.0861L430.289 54.5539ZM430.788 65.0754C430.777 65.2109 430.754 65.2765 430.746 65.2951C430.741 65.3082 430.75 65.2828 430.786 65.2498C430.821 65.2167 430.848 65.2093 430.836 65.2132C430.819 65.2189 430.753 65.236 430.619 65.236V68.236C431.372 68.236 432.18 68.0455 432.82 67.4542C433.46 66.8636 433.715 66.0739 433.778 65.3246L430.788 65.0754ZM430.619 65.236H391.067V68.236H430.619V65.236ZM391.067 65.236C390.725 65.236 389.924 65.2838 389.384 65.959C388.776 66.7189 389.018 67.5731 389.162 67.9331L391.948 66.8189C391.95 66.8241 391.96 66.8492 391.969 66.8918C391.979 66.934 391.991 67.0041 391.991 67.096C391.991 67.2957 391.932 67.5764 391.726 67.833C391.533 68.0753 391.307 68.1725 391.194 68.2077C391.087 68.2412 391.031 68.236 391.067 68.236V65.236ZM389.072 67.5985C389.346 69.427 389.847 71.2457 390.57 73.0531L393.356 71.9389C392.713 70.3329 392.276 68.7383 392.038 67.1535L389.072 67.5985ZM390.602 73.1277C393.144 78.6009 398.327 81.164 405.531 81.164V78.164C399.081 78.164 395.22 75.9484 393.324 71.8643L390.602 73.1277ZM405.554 81.1638C411.479 81.0712 416.233 78.6302 419.673 73.8888L417.245 72.1272C414.37 76.0898 410.506 78.0861 405.508 78.1642L405.554 81.1638ZM419.707 73.84C419.753 73.7711 419.789 73.7275 419.814 73.7019C419.837 73.6766 419.846 73.6731 419.835 73.6801C419.823 73.6878 419.795 73.7043 419.751 73.7184C419.705 73.7327 419.657 73.74 419.611 73.74V70.74C418.484 70.74 417.698 71.4451 417.211 72.1759L419.707 73.84ZM419.611 73.74C419.403 73.74 419.285 73.6717 419.283 73.6704C419.279 73.6679 419.292 73.675 419.322 73.6993C419.352 73.7233 419.393 73.7598 419.446 73.8127L421.568 71.6913C421.168 71.2912 420.496 70.74 419.611 70.74V73.74ZM419.454 73.8201L428.67 82.9081L430.776 80.7719L421.56 71.6839L419.454 73.8201ZM428.662 82.9007C428.811 83.0494 428.873 83.1421 428.892 83.1765C428.909 83.208 428.863 83.1392 428.863 82.992H431.863C431.863 82.0399 431.293 81.2884 430.784 80.7793L428.662 82.9007ZM428.863 82.992C428.863 82.892 428.875 82.815 428.884 82.7698C428.893 82.7231 428.903 82.6913 428.908 82.6777C428.916 82.6531 428.916 82.6596 428.893 82.7052C428.847 82.7971 428.757 82.9525 428.603 83.184L431.099 84.8481C431.286 84.5675 431.452 84.2962 431.577 84.0468C431.668 83.8644 431.863 83.4596 431.863 82.992H428.863ZM428.682 83.0755C426.029 86.3729 422.601 88.9624 418.364 90.8362L419.578 93.5798C424.216 91.5282 428.042 88.6565 431.02 84.9565L428.682 83.0755ZM418.387 90.8265C414.152 92.6183 409.489 93.524 404.379 93.524V96.524C409.851 96.524 414.916 95.5524 419.555 93.5894L418.387 90.8265ZM404.379 93.524C397.271 93.524 391.34 91.9147 386.508 88.7743L384.874 91.2897C390.282 94.8053 396.809 96.524 404.379 96.524V93.524ZM386.518 88.7807C381.764 85.6383 378.332 81.2505 376.217 75.5577L373.405 76.6023C375.728 82.8562 379.548 87.7697 384.864 91.2833L386.518 88.7807ZM376.194 75.4992C374.508 71.4839 373.623 66.1139 373.623 59.312H370.623C370.623 66.3341 371.53 72.1427 373.428 76.6609L376.194 75.4992ZM373.623 59.312C373.623 54.752 374.245 50.7898 375.456 47.4005L372.63 46.3915C371.281 50.1702 370.623 54.4854 370.623 59.312H373.623ZM375.47 47.3583C377.342 41.581 380.576 37.027 385.173 33.6396L383.393 31.2244C378.262 35.005 374.67 40.0937 372.616 46.4337L375.47 47.3583ZM385.163 33.6469C389.83 30.2673 395.359 28.556 401.819 28.556V25.556C394.796 25.556 388.635 27.4286 383.403 31.2171L385.163 33.6469ZM401.819 28.556C410.046 28.556 416.47 30.9317 421.256 35.5585L423.342 33.4015C417.888 28.1296 410.659 25.556 401.819 25.556V28.556ZM421.265 35.567C426.184 40.2435 429.213 46.5231 430.284 54.5192L433.258 54.1208C432.111 45.5623 428.825 38.6152 423.333 33.3929L421.265 35.567ZM401.947 41.172C399.022 41.172 396.469 41.8593 394.39 43.3374C392.309 44.8165 390.834 46.9942 389.902 49.7424L392.744 50.7056C393.519 48.4191 394.668 46.8208 396.128 45.7826C397.59 44.7434 399.496 44.172 401.947 44.172V41.172ZM389.889 49.7829C389.521 50.9814 389.208 52.4208 388.945 54.0861L391.909 54.5539C392.158 52.9765 392.443 51.6853 392.757 50.6651L389.889 49.7829ZM388.927 54.32C388.927 54.7645 389.039 55.3735 389.526 55.8607C390.014 56.3478 390.622 56.46 391.067 56.46V53.46C391.085 53.46 391.374 53.4655 391.648 53.7393C391.922 54.0132 391.927 54.3021 391.927 54.32H388.927ZM391.067 56.46H413.211V53.46H391.067V56.46ZM413.211 56.46C413.553 56.46 414.354 56.4122 414.894 55.737C415.502 54.9771 415.26 54.1229 415.116 53.7629L412.33 54.8771C412.328 54.8719 412.318 54.8468 412.309 54.8042C412.299 54.762 412.287 54.6919 412.287 54.6C412.287 54.4003 412.346 54.1196 412.552 53.863C412.745 53.6207 412.971 53.5235 413.084 53.4883C413.191 53.4548 413.247 53.46 413.211 53.46V56.46ZM415.201 54.0651C414.988 52.8273 414.827 51.9063 414.72 51.3043C414.666 51.0047 414.625 50.7778 414.596 50.6287C414.583 50.5589 414.568 50.4877 414.556 50.4316C414.552 50.4162 414.547 50.3945 414.541 50.3702C414.537 50.3561 414.523 50.2989 414.498 50.2305C414.491 50.2099 414.454 50.1047 414.384 49.9829C414.356 49.9355 414.259 49.7678 414.075 49.6058C413.905 49.4565 413.306 49.0272 412.527 49.339C411.917 49.5829 411.718 50.1065 411.688 50.1813C411.627 50.3366 411.606 50.4664 411.599 50.5147C411.583 50.6248 411.583 50.7125 411.583 50.736H414.583C414.583 50.7569 414.583 50.8425 414.567 50.9512C414.56 50.9988 414.54 51.128 414.479 51.2829C414.449 51.3574 414.25 51.8807 413.641 52.1245C412.861 52.4362 412.262 52.007 412.093 51.8579C411.909 51.6962 411.812 51.5288 411.785 51.482C411.715 51.3612 411.679 51.2578 411.673 51.2395C411.65 51.1757 411.638 51.1257 411.636 51.1213C411.633 51.1066 411.63 51.0971 411.63 51.0964C411.63 51.0946 411.631 51.1013 411.635 51.121C411.639 51.1393 411.644 51.1637 411.65 51.1953C411.675 51.3235 411.713 51.5339 411.766 51.8317C411.872 52.4244 412.032 53.3381 412.245 54.5749L415.201 54.0651ZM414.52 50.305C413.667 47.4608 412.117 45.1984 409.844 43.6166L408.13 46.0794C409.782 47.2283 410.964 48.8912 411.646 51.167L414.52 50.305ZM409.904 43.6611C407.717 41.9714 405.031 41.172 401.947 41.172V44.172C404.495 44.172 406.502 44.8233 408.07 46.0349L409.904 43.6611ZM483.47 29.104L482.638 30.3521L482.716 30.4039L482.799 30.4456L483.47 29.104ZM484.238 31.024L485.713 31.2957L485.714 31.2923L484.238 31.024ZM481.55 45.616L480.075 45.3443L480.061 45.4174L480.055 45.4914L481.55 45.616ZM479.758 46.512L480.296 45.112L480.265 45.0997L480.232 45.089L479.758 46.512ZM472.462 46.128L472.587 47.6228L472.63 47.6192L472.674 47.6129L472.462 46.128ZM464.654 49.584L465.67 50.6879L465.681 50.6771L465.693 50.6661L464.654 49.584ZM460.942 93.616L462.003 94.6767L460.942 93.616ZM443.79 93.616L442.59 94.516L442.719 94.6874L442.89 94.816L443.79 93.616ZM443.79 28.72L442.729 27.6593V27.6593L443.79 28.72ZM460.942 28.72L459.742 29.62L459.871 29.7914L460.042 29.92L460.942 28.72ZM461.71 35.12L461.039 36.4616V36.4616L461.71 35.12ZM462.094 34.992L460.856 34.1457L460.798 34.2299L460.752 34.3212L462.094 34.992ZM476.174 28.812C479.071 28.812 481.177 29.3778 482.638 30.3521L484.302 27.8559C482.179 26.4408 479.421 25.812 476.174 25.812V28.812ZM482.799 30.4456C482.835 30.4633 482.834 30.4692 482.818 30.4528C482.801 30.4347 482.787 30.4125 482.781 30.3971C482.772 30.3729 482.816 30.4614 482.762 30.7557L485.714 31.2923C485.831 30.648 485.832 29.947 485.567 29.2829C485.287 28.5844 484.773 28.0783 484.141 27.7624L482.799 30.4456ZM482.763 30.7523L480.075 45.3443L483.025 45.8877L485.713 31.2957L482.763 30.7523ZM480.055 45.4914C480.044 45.6207 480.025 45.6231 480.057 45.56C480.075 45.5244 480.109 45.4708 480.165 45.4133C480.223 45.3546 480.292 45.304 480.367 45.2664C480.519 45.1903 480.624 45.2015 480.606 45.2002C480.583 45.1985 480.486 45.1849 480.296 45.112L479.22 47.912C479.882 48.1668 480.827 48.3907 481.709 47.9496C482.693 47.4576 482.984 46.4749 483.045 45.7406L480.055 45.4914ZM480.232 45.089C478.765 44.5999 477.105 44.372 475.278 44.372V47.372C476.864 47.372 478.191 47.5708 479.284 47.935L480.232 45.089ZM475.278 44.372C474.49 44.372 473.47 44.4687 472.25 44.6431L472.674 47.6129C473.843 47.4459 474.7 47.372 475.278 47.372V44.372ZM472.337 44.6332C468.938 44.9165 466.008 46.2048 463.615 48.5019L465.693 50.6661C467.567 48.8672 469.842 47.8515 472.587 47.6228L472.337 44.6332ZM463.638 48.4801C461.149 50.77 459.954 53.8408 459.954 57.52H462.954C462.954 54.5432 463.892 52.3234 465.67 50.6879L463.638 48.4801ZM459.954 57.52V92.464H462.954V57.52H459.954ZM459.954 92.464C459.954 92.4699 459.953 92.4703 459.954 92.467C459.955 92.4636 459.956 92.4618 459.955 92.4628C459.955 92.4635 459.941 92.4957 459.881 92.5553L462.003 94.6767C462.585 94.0943 462.954 93.342 462.954 92.464H459.954ZM459.881 92.5553C459.892 92.5451 459.906 92.5333 459.923 92.5222C459.94 92.5112 459.956 92.5039 459.967 92.4995C459.991 92.4906 459.982 92.5 459.918 92.5V95.5C460.666 95.5 461.416 95.2638 462.003 94.6767L459.881 92.5553ZM459.918 92.5H444.942V95.5H459.918V92.5ZM444.942 92.5C444.84 92.5 444.772 92.4773 444.69 92.416L442.89 94.816C443.491 95.2667 444.191 95.5 444.942 95.5V92.5ZM444.99 92.716C444.929 92.6343 444.906 92.5661 444.906 92.464H441.906C441.906 93.2152 442.139 93.915 442.59 94.516L444.99 92.716ZM444.906 92.464V29.744H441.906V92.464H444.906ZM444.906 29.744C444.906 29.6805 444.915 29.6709 444.906 29.6947C444.902 29.7063 444.895 29.7219 444.884 29.7391C444.873 29.7563 444.861 29.7704 444.851 29.7807L442.729 27.6593C442.142 28.2464 441.906 28.9959 441.906 29.744H444.906ZM444.851 29.7807C444.91 29.7211 444.943 29.707 444.943 29.7067C444.944 29.7063 444.942 29.7071 444.939 29.7078C444.936 29.7085 444.936 29.708 444.942 29.708V26.708C444.064 26.708 443.312 27.077 442.729 27.6593L444.851 29.7807ZM444.942 29.708H459.918V26.708H444.942V29.708ZM459.918 29.708C459.926 29.708 459.884 29.7082 459.823 29.6776C459.762 29.6471 459.737 29.6134 459.742 29.62L462.142 27.82C461.603 27.1009 460.817 26.708 459.918 26.708V29.708ZM460.042 29.92C460.049 29.9249 460.015 29.8999 459.984 29.8388C459.954 29.7777 459.954 29.7357 459.954 29.744H462.954C462.954 28.8452 462.561 28.0593 461.842 27.52L460.042 29.92ZM459.954 29.744V34.608H462.954V29.744H459.954ZM459.954 34.608C459.954 35.2056 460.185 36.0347 461.039 36.4616L462.381 33.7784C462.586 33.8808 462.757 34.0522 462.86 34.2572C462.95 34.4388 462.954 34.579 462.954 34.608H459.954ZM461.039 36.4616C461.331 36.6077 461.834 36.7665 462.408 36.575C462.983 36.3835 463.29 35.955 463.436 35.6628L460.752 34.3212C460.813 34.1997 461.013 33.8778 461.46 33.729C461.906 33.5801 462.259 33.7176 462.381 33.7784L461.039 36.4616ZM463.332 35.8383C466.569 31.1015 470.812 28.812 476.174 28.812V25.812C469.76 25.812 464.616 28.6425 460.856 34.1457L463.332 35.8383ZM574.479 92.72L575.916 92.289L575.913 92.2809L574.479 92.72ZM570.639 80.176L572.073 79.7369L572.037 79.6172L571.981 79.5052L570.639 80.176ZM537.871 80.176L536.529 79.5052L536.47 79.6235L536.433 79.7504L537.871 80.176ZM534.159 92.72L535.596 93.151L535.597 93.1456L534.159 92.72ZM515.087 93.616L513.887 94.516L513.951 94.6013L514.026 94.6767L515.087 93.616ZM514.959 92.208L513.53 91.7514L513.523 91.7736L513.517 91.7959L514.959 92.208ZM542.607 5.67999L544.036 6.13654L544.04 6.12381L544.044 6.11102L542.607 5.67999ZM566.031 5.67999L564.594 6.11102L564.598 6.12381L564.602 6.13654L566.031 5.67999ZM593.679 92.208L592.25 92.6646L592.285 92.7751L592.337 92.8788L593.679 92.208ZM542.479 64.944L541.041 64.5179L541.015 64.6064L540.999 64.6974L542.479 64.944ZM566.031 64.944L564.595 65.379L564.601 65.3988L564.608 65.4183L566.031 64.944ZM554.511 26.928L553.056 27.2918L553.065 27.3276L553.075 27.363L554.511 26.928ZM554.127 26.544V28.044H554.481L554.798 27.8856L554.127 26.544ZM553.743 26.928L552.32 26.4537L552.312 26.4776L552.305 26.5019L553.743 26.928ZM576.143 92.5C576.054 92.5 576.008 92.4889 575.994 92.4845C575.982 92.481 575.989 92.4817 576.002 92.4911C576.034 92.516 575.978 92.4971 575.916 92.289L573.042 93.151C573.236 93.7962 573.585 94.4173 574.172 94.8689C574.766 95.3251 575.46 95.5 576.143 95.5V92.5ZM575.913 92.2809L572.073 79.7369L569.205 80.6151L573.045 93.1591L575.913 92.2809ZM571.981 79.5052C571.695 78.9348 571.079 78.164 569.999 78.164V81.164C569.763 81.164 569.554 81.0754 569.414 80.9633C569.298 80.8704 569.273 80.7982 569.297 80.8468L571.981 79.5052ZM569.999 78.164H538.511V81.164H569.999V78.164ZM538.511 78.164C537.431 78.164 536.815 78.9348 536.529 79.5052L539.213 80.8468C539.237 80.7982 539.212 80.8704 539.096 80.9633C538.956 81.0754 538.747 81.164 538.511 81.164V78.164ZM536.433 79.7504L532.721 92.2944L535.597 93.1456L539.309 80.6016L536.433 79.7504ZM532.722 92.289C532.66 92.4971 532.604 92.516 532.636 92.4911C532.649 92.4817 532.656 92.481 532.644 92.4845C532.63 92.4889 532.584 92.5 532.495 92.5V95.5C533.178 95.5 533.873 95.3251 534.466 94.8689C535.053 94.4173 535.402 93.7962 535.596 93.151L532.722 92.289ZM532.495 92.5H516.239V95.5H532.495V92.5ZM516.239 92.5C516.104 92.5 516.046 92.4825 516.041 92.481C516.04 92.4807 516.053 92.4849 516.075 92.4978C516.097 92.5109 516.122 92.53 516.148 92.5553L514.026 94.6767C514.663 95.3132 515.496 95.5 516.239 95.5V92.5ZM516.287 92.716C516.311 92.7485 516.33 92.784 516.343 92.8174C516.354 92.85 516.357 92.8705 516.357 92.8722C516.357 92.8729 516.355 92.8539 516.36 92.8107C516.366 92.7674 516.377 92.7045 516.401 92.6201L513.517 91.7959C513.279 92.629 513.238 93.6505 513.887 94.516L516.287 92.716ZM516.388 92.6646L544.036 6.13654L541.178 5.22344L513.53 91.7514L516.388 92.6646ZM544.044 6.11102C544.106 5.90289 544.162 5.88398 544.13 5.90893C544.117 5.91834 544.11 5.91903 544.122 5.91553C544.137 5.91114 544.182 5.89999 544.271 5.89999V2.89999C543.588 2.89999 542.893 3.07487 542.3 3.53106C541.713 3.98267 541.364 4.60376 541.17 5.24897L544.044 6.11102ZM544.271 5.89999H564.367V2.89999H544.271V5.89999ZM564.367 5.89999C564.456 5.89999 564.502 5.91114 564.516 5.91553C564.528 5.91903 564.521 5.91834 564.508 5.90893C564.476 5.88398 564.532 5.90289 564.594 6.11102L567.468 5.24897C567.274 4.60376 566.925 3.98267 566.338 3.53106C565.745 3.07487 565.05 2.89999 564.367 2.89999V5.89999ZM564.602 6.13654L592.25 92.6646L595.108 91.7514L567.46 5.22344L564.602 6.13654ZM592.337 92.8788C592.313 92.8296 592.305 92.7963 592.304 92.7902C592.303 92.7848 592.307 92.802 592.307 92.848H595.307C595.307 92.435 595.239 91.9748 595.021 91.5372L592.337 92.8788ZM592.307 92.848C592.307 92.8901 592.3 92.8586 592.33 92.7861C592.363 92.7044 592.424 92.6178 592.505 92.5511C592.58 92.4895 592.634 92.4772 592.62 92.4809C592.604 92.4854 592.536 92.5 592.399 92.5V95.5C593.035 95.5 593.79 95.3761 594.405 94.8729C595.077 94.3227 595.307 93.5516 595.307 92.848H592.307ZM592.399 92.5H576.143V95.5H592.399V92.5ZM540.999 64.6974C540.934 65.0887 540.893 65.7499 541.295 66.3521C541.758 67.0472 542.488 67.212 542.991 67.212V64.212C543.027 64.212 543.149 64.2164 543.31 64.2853C543.487 64.3611 543.663 64.4959 543.791 64.688C544.022 65.0341 543.938 65.3113 543.959 65.1906L540.999 64.6974ZM542.991 67.212H565.519V64.212H542.991V67.212ZM565.519 67.212C565.939 67.212 566.77 67.116 567.279 66.3521C567.763 65.6265 567.58 64.8462 567.454 64.4697L564.608 65.4183C564.619 65.4504 564.595 65.396 564.595 65.28C564.595 65.1535 564.625 64.9252 564.783 64.688C565.122 64.18 565.611 64.212 565.519 64.212V67.212ZM567.467 64.509L555.947 26.493L553.075 27.363L564.595 65.379L567.467 64.509ZM555.966 26.5642C555.909 26.3363 555.777 25.8806 555.412 25.5153C555.197 25.301 554.878 25.0949 554.459 25.0351C554.048 24.9764 553.699 25.0808 553.456 25.2024L554.798 27.8856C554.64 27.9645 554.371 28.0529 554.035 28.0049C553.691 27.9557 553.441 27.787 553.29 27.6367C553.154 27.4999 553.092 27.374 553.073 27.3327C553.052 27.2849 553.049 27.2651 553.056 27.2918L555.966 26.5642ZM554.127 25.044C552.96 25.044 552.471 26.0017 552.32 26.4537L555.166 27.4023C555.164 27.4072 555.153 27.4395 555.126 27.4885C555.099 27.5373 555.049 27.6158 554.964 27.7007C554.765 27.899 554.466 28.044 554.127 28.044V25.044ZM552.305 26.5019L541.041 64.5179L543.917 65.3701L555.181 27.3541L552.305 26.5019ZM643.97 29.104L643.138 30.3521L643.216 30.4039L643.299 30.4456L643.97 29.104ZM644.738 31.024L646.213 31.2957L646.214 31.2923L644.738 31.024ZM642.05 45.616L640.575 45.3443L640.561 45.4174L640.555 45.4914L642.05 45.616ZM640.258 46.512L640.796 45.112L640.765 45.0997L640.732 45.089L640.258 46.512ZM632.962 46.128L633.087 47.6228L633.13 47.6192L633.174 47.6129L632.962 46.128ZM625.154 49.584L626.17 50.6879L626.181 50.6771L626.193 50.6661L625.154 49.584ZM621.442 93.616L622.503 94.6767L621.442 93.616ZM604.29 93.616L603.09 94.516L603.219 94.6874L603.39 94.816L604.29 93.616ZM604.29 28.72L603.229 27.6593L603.229 27.6593L604.29 28.72ZM621.442 28.72L620.242 29.62L620.371 29.7914L620.542 29.92L621.442 28.72ZM622.21 35.12L621.539 36.4616V36.4616L622.21 35.12ZM622.594 34.992L621.356 34.1457L621.298 34.2299L621.252 34.3212L622.594 34.992ZM636.674 28.812C639.571 28.812 641.677 29.3778 643.138 30.3521L644.802 27.8559C642.679 26.4408 639.921 25.812 636.674 25.812V28.812ZM643.299 30.4456C643.335 30.4633 643.334 30.4692 643.318 30.4528C643.301 30.4347 643.287 30.4125 643.281 30.3971C643.272 30.3729 643.316 30.4614 643.262 30.7557L646.214 31.2923C646.331 30.648 646.332 29.947 646.067 29.2829C645.787 28.5844 645.273 28.0783 644.641 27.7624L643.299 30.4456ZM643.263 30.7523L640.575 45.3443L643.525 45.8877L646.213 31.2957L643.263 30.7523ZM640.555 45.4914C640.544 45.6207 640.525 45.6231 640.557 45.56C640.575 45.5244 640.609 45.4708 640.665 45.4133C640.723 45.3546 640.792 45.304 640.867 45.2664C641.019 45.1903 641.124 45.2015 641.106 45.2002C641.083 45.1985 640.986 45.1849 640.796 45.112L639.72 47.912C640.382 48.1668 641.327 48.3907 642.209 47.9496C643.193 47.4576 643.484 46.4749 643.545 45.7406L640.555 45.4914ZM640.732 45.089C639.265 44.5999 637.605 44.372 635.778 44.372V47.372C637.364 47.372 638.691 47.5708 639.784 47.935L640.732 45.089ZM635.778 44.372C634.99 44.372 633.97 44.4687 632.75 44.6431L633.174 47.6129C634.343 47.4459 635.2 47.372 635.778 47.372V44.372ZM632.837 44.6332C629.438 44.9165 626.508 46.2048 624.115 48.5019L626.193 50.6661C628.067 48.8672 630.342 47.8515 633.087 47.6228L632.837 44.6332ZM624.138 48.4801C621.649 50.77 620.454 53.8408 620.454 57.52H623.454C623.454 54.5432 624.392 52.3234 626.17 50.6879L624.138 48.4801ZM620.454 57.52V92.464H623.454V57.52H620.454ZM620.454 92.464C620.454 92.4699 620.453 92.4703 620.454 92.467C620.455 92.4636 620.456 92.4618 620.455 92.4628C620.455 92.4635 620.441 92.4957 620.381 92.5553L622.503 94.6767C623.085 94.0943 623.454 93.342 623.454 92.464H620.454ZM620.381 92.5553C620.392 92.5451 620.406 92.5333 620.423 92.5222C620.44 92.5112 620.456 92.5039 620.467 92.4995C620.491 92.4906 620.482 92.5 620.418 92.5V95.5C621.166 95.5 621.916 95.2638 622.503 94.6767L620.381 92.5553ZM620.418 92.5H605.442V95.5H620.418V92.5ZM605.442 92.5C605.34 92.5 605.272 92.4773 605.19 92.416L603.39 94.816C603.991 95.2667 604.691 95.5 605.442 95.5V92.5ZM605.49 92.716C605.429 92.6343 605.406 92.5661 605.406 92.464H602.406C602.406 93.2152 602.639 93.915 603.09 94.516L605.49 92.716ZM605.406 92.464V29.744H602.406V92.464H605.406ZM605.406 29.744C605.406 29.6805 605.415 29.6709 605.406 29.6947C605.402 29.7063 605.395 29.7219 605.384 29.7391C605.373 29.7563 605.361 29.7704 605.351 29.7807L603.229 27.6593C602.642 28.2464 602.406 28.9959 602.406 29.744H605.406ZM605.351 29.7807C605.41 29.7211 605.443 29.707 605.443 29.7067C605.444 29.7063 605.442 29.7071 605.439 29.7078C605.436 29.7085 605.436 29.708 605.442 29.708V26.708C604.564 26.708 603.812 27.077 603.229 27.6593L605.351 29.7807ZM605.442 29.708H620.418V26.708H605.442V29.708ZM620.418 29.708C620.426 29.708 620.384 29.7082 620.323 29.6776C620.262 29.6471 620.237 29.6134 620.242 29.62L622.642 27.82C622.103 27.1009 621.317 26.708 620.418 26.708V29.708ZM620.542 29.92C620.549 29.9249 620.515 29.8999 620.484 29.8388C620.454 29.7777 620.454 29.7357 620.454 29.744H623.454C623.454 28.8452 623.061 28.0593 622.342 27.52L620.542 29.92ZM620.454 29.744V34.608H623.454V29.744H620.454ZM620.454 34.608C620.454 35.2056 620.685 36.0347 621.539 36.4616L622.881 33.7784C623.086 33.8808 623.257 34.0522 623.36 34.2572C623.45 34.4388 623.454 34.579 623.454 34.608H620.454ZM621.539 36.4616C621.831 36.6077 622.334 36.7665 622.908 36.575C623.483 36.3835 623.79 35.955 623.936 35.6628L621.252 34.3212C621.313 34.1997 621.513 33.8778 621.96 33.729C622.406 33.5801 622.759 33.7176 622.881 33.7784L621.539 36.4616ZM623.832 35.8383C627.069 31.1015 631.312 28.812 636.674 28.812V25.812C630.26 25.812 625.116 28.6425 621.356 34.1457L623.832 35.8383ZM690.904 42.288L691.965 43.3487V43.3487L690.904 42.288ZM678.616 76.72L677.452 77.6659L677.469 77.6871L677.487 77.7078L678.616 76.72ZM689.496 79.28L688.296 80.18L688.425 80.3514L688.596 80.48L689.496 79.28ZM688.472 94.128L688.543 95.6263L688.632 95.6221L688.719 95.6076L688.472 94.128ZM664.92 90.928L664.074 92.1667L664.084 92.1738L664.095 92.1808L664.92 90.928ZM659.544 77.616H658.044V77.6259L658.044 77.6357L659.544 77.616ZM650.456 42.288L649.256 43.188L649.385 43.3594L649.556 43.488L650.456 42.288ZM650.456 28.72L649.395 27.6593V27.6593L650.456 28.72ZM659.928 11.312L658.867 10.2513L659.928 11.312ZM676.44 11.312L675.24 12.212L675.369 12.3834L675.54 12.512L676.44 11.312ZM690.904 28.72L689.704 29.62L689.833 29.7914L690.004 29.92L690.904 28.72ZM689.916 41.136C689.916 41.1419 689.915 41.1423 689.916 41.139C689.917 41.1356 689.918 41.1338 689.917 41.1348C689.917 41.1355 689.903 41.1677 689.843 41.2273L691.965 43.3487C692.547 42.7663 692.916 42.014 692.916 41.136H689.916ZM689.843 41.2273C689.854 41.2171 689.868 41.2053 689.885 41.1942C689.902 41.1832 689.918 41.1759 689.929 41.1715C689.953 41.1626 689.944 41.172 689.88 41.172V44.172C690.628 44.172 691.378 43.9358 691.965 43.3487L689.843 41.2273ZM689.88 41.172H677.592V44.172H689.88V41.172ZM677.592 41.172C677.147 41.172 676.539 41.2841 676.051 41.7713C675.564 42.2585 675.452 42.8674 675.452 43.312H678.452C678.452 43.3299 678.447 43.6188 678.173 43.8927C677.899 44.1665 677.61 44.172 677.592 44.172V41.172ZM675.452 43.312V70.448H678.452V43.312H675.452ZM675.452 70.448C675.452 73.415 676.029 75.9141 677.452 77.6659L679.78 75.7741C678.985 74.7953 678.452 73.113 678.452 70.448H675.452ZM677.487 77.7078C679.069 79.5153 681.439 80.268 684.248 80.268V77.268C681.937 77.268 680.553 76.6554 679.745 75.7322L677.487 77.7078ZM684.248 80.268H688.472V77.268H684.248V80.268ZM688.472 80.268C688.48 80.268 688.438 80.2682 688.377 80.2376C688.316 80.2071 688.291 80.1734 688.296 80.18L690.696 78.38C690.157 77.661 689.371 77.268 688.472 77.268V80.268ZM688.596 80.48C688.603 80.485 688.569 80.4599 688.538 80.3988C688.508 80.3377 688.508 80.2957 688.508 80.304H691.508C691.508 79.4052 691.115 78.6193 690.396 78.08L688.596 80.48ZM688.508 80.304V92.464H691.508V80.304H688.508ZM688.508 92.464C688.508 92.5636 688.494 92.6059 688.493 92.6095C688.493 92.6111 688.494 92.6055 688.5 92.5956C688.506 92.5855 688.514 92.5754 688.522 92.5666C688.563 92.5218 688.53 92.5976 688.225 92.6484L688.719 95.6076C689.438 95.4878 690.173 95.2009 690.726 94.6014C691.296 93.9837 691.508 93.2144 691.508 92.464H688.508ZM688.401 92.6297C684.818 92.8003 682.289 92.884 680.792 92.884V95.884C682.367 95.884 684.958 95.797 688.543 95.6263L688.401 92.6297ZM680.792 92.884C673.822 92.884 668.882 91.7412 665.745 89.6752L664.095 92.1808C667.955 94.7228 673.597 95.884 680.792 95.884V92.884ZM665.766 89.6893C662.851 87.6989 661.126 83.8628 661.044 77.5963L658.044 77.6357C658.132 84.3399 659.991 89.3785 664.074 92.1667L665.766 89.6893ZM661.044 77.616V43.312H658.044V77.616H661.044ZM661.044 43.312C661.044 42.8674 660.932 42.2585 660.445 41.7713C659.957 41.2841 659.349 41.172 658.904 41.172V44.172C658.886 44.172 658.597 44.1665 658.323 43.8927C658.049 43.6188 658.044 43.3299 658.044 43.312H661.044ZM658.904 41.172H651.608V44.172H658.904V41.172ZM651.608 41.172C651.506 41.172 651.438 41.1493 651.356 41.088L649.556 43.488C650.157 43.9387 650.857 44.172 651.608 44.172V41.172ZM651.656 41.388C651.595 41.3063 651.572 41.2381 651.572 41.136H648.572C648.572 41.8872 648.805 42.587 649.256 43.188L651.656 41.388ZM651.572 41.136V29.744H648.572V41.136H651.572ZM651.572 29.744C651.572 29.6805 651.581 29.6709 651.573 29.6947C651.568 29.7063 651.561 29.7219 651.55 29.7391C651.539 29.7563 651.527 29.7704 651.517 29.7807L649.395 27.6593C648.808 28.2464 648.572 28.9959 648.572 29.744H651.572ZM651.517 29.7807C651.576 29.7211 651.609 29.707 651.609 29.7067C651.61 29.7063 651.608 29.7071 651.605 29.7078C651.602 29.7085 651.602 29.708 651.608 29.708V26.708C650.73 26.708 649.978 27.077 649.395 27.6593L651.517 29.7807ZM651.608 29.708H658.904V26.708H651.608V29.708ZM658.904 29.708C659.349 29.708 659.957 29.5958 660.445 29.1087C660.932 28.6215 661.044 28.0125 661.044 27.568H658.044C658.044 27.5501 658.049 27.2612 658.323 26.9873C658.597 26.7135 658.886 26.708 658.904 26.708V29.708ZM661.044 27.568V12.336H658.044V27.568H661.044ZM661.044 12.336C661.044 12.2725 661.053 12.2629 661.044 12.2867C661.04 12.2983 661.033 12.3139 661.022 12.3311C661.011 12.3483 660.999 12.3624 660.989 12.3727L658.867 10.2513C658.28 10.8384 658.044 11.5879 658.044 12.336H661.044ZM660.989 12.3727C661.048 12.313 661.081 12.299 661.081 12.2987C661.082 12.2983 661.08 12.2991 661.077 12.2998C661.074 12.3005 661.074 12.3 661.08 12.3V9.3C660.202 9.3 659.45 9.66897 658.867 10.2513L660.989 12.3727ZM661.08 12.3H675.416V9.3H661.08V12.3ZM675.416 12.3C675.424 12.3 675.382 12.3002 675.321 12.2696C675.26 12.2391 675.235 12.2054 675.24 12.212L677.64 10.412C677.101 9.69296 676.315 9.3 675.416 9.3V12.3ZM675.54 12.512C675.547 12.5169 675.513 12.4919 675.482 12.4308C675.452 12.3697 675.452 12.3277 675.452 12.336H678.452C678.452 11.4372 678.059 10.6513 677.34 10.112L675.54 12.512ZM675.452 12.336V27.568H678.452V12.336H675.452ZM675.452 27.568C675.452 28.0125 675.564 28.6215 676.051 29.1087C676.539 29.5958 677.147 29.708 677.592 29.708V26.708C677.61 26.708 677.899 26.7135 678.173 26.9873C678.447 27.2612 678.452 27.5501 678.452 27.568H675.452ZM677.592 29.708H689.88V26.708H677.592V29.708ZM689.88 29.708C689.888 29.708 689.846 29.7082 689.785 29.6776C689.724 29.6471 689.699 29.6134 689.704 29.62L692.104 27.82C691.565 27.1009 690.779 26.708 689.88 26.708V29.708ZM690.004 29.92C690.011 29.9249 689.977 29.8999 689.946 29.8388C689.916 29.7777 689.916 29.7357 689.916 29.744H692.916C692.916 28.8452 692.523 28.0593 691.804 27.52L690.004 29.92ZM689.916 29.744V41.136H692.916V29.744H689.916ZM704.713 17.968L703.629 19.0048L703.652 19.0289L703.676 19.052L704.713 17.968ZM704.713 3.376L705.774 4.43666L704.713 3.376ZM719.305 3.376L718.244 4.43666L719.305 3.376ZM719.177 17.968L718.116 16.9073L719.177 17.968ZM703.177 93.616L701.977 94.516L702.106 94.6874L702.277 94.816L703.177 93.616ZM703.177 28.592L702.116 27.5313L703.177 28.592ZM720.329 28.592L719.129 29.492L719.258 29.6634L719.429 29.792L720.329 28.592ZM720.329 93.616L719.268 92.5553L719.268 92.5553L720.329 93.616ZM712.009 19.284C709.465 19.284 707.413 18.475 705.75 16.884L703.676 19.052C705.938 21.2157 708.75 22.284 712.009 22.284V19.284ZM705.797 16.9312C704.206 15.2679 703.397 13.216 703.397 10.672H700.397C700.397 13.9306 701.465 16.7427 703.629 19.0048L705.797 16.9312ZM703.397 10.672C703.397 8.0289 704.214 5.99651 705.774 4.43666L703.652 2.31534C701.458 4.51015 700.397 7.34176 700.397 10.672H703.397ZM705.774 4.43666C707.333 2.8768 709.366 2.06 712.009 2.06V-0.940002C708.679 -0.940002 705.847 0.120525 703.652 2.31534L705.774 4.43666ZM712.009 2.06C714.652 2.06 716.685 2.8768 718.244 4.43666L720.366 2.31534C718.171 0.120525 715.339 -0.940002 712.009 -0.940002V2.06ZM718.244 4.43666C719.804 5.99651 720.621 8.0289 720.621 10.672H723.621C723.621 7.34176 722.56 4.51015 720.366 2.31534L718.244 4.43666ZM720.621 10.672C720.621 13.1956 719.784 15.2399 718.116 16.9073L720.238 19.0287C722.496 16.7708 723.621 13.9511 723.621 10.672H720.621ZM718.116 16.9073C716.548 18.4759 714.553 19.284 712.009 19.284V22.284C715.268 22.284 718.052 21.2148 720.238 19.0287L718.116 16.9073ZM704.329 92.5C704.227 92.5 704.159 92.4773 704.077 92.416L702.277 94.816C702.878 95.2667 703.578 95.5 704.329 95.5V92.5ZM704.377 92.716C704.316 92.6343 704.293 92.5661 704.293 92.464H701.293C701.293 93.2152 701.526 93.915 701.977 94.516L704.377 92.716ZM704.293 92.464V29.616H701.293V92.464H704.293ZM704.293 29.616C704.293 29.5525 704.302 29.5429 704.294 29.5667C704.289 29.5783 704.282 29.5939 704.271 29.6111C704.26 29.6283 704.248 29.6424 704.238 29.6527L702.116 27.5313C701.529 28.1184 701.293 28.8679 701.293 29.616H704.293ZM704.238 29.6527C704.297 29.593 704.33 29.579 704.33 29.5787C704.331 29.5783 704.329 29.5791 704.326 29.5798C704.323 29.5805 704.323 29.58 704.329 29.58V26.58C703.451 26.58 702.699 26.949 702.116 27.5313L704.238 29.6527ZM704.329 29.58H719.305V26.58H704.329V29.58ZM719.305 29.58C719.313 29.58 719.271 29.5802 719.21 29.5496C719.149 29.5191 719.124 29.4854 719.129 29.492L721.529 27.692C720.99 26.973 720.204 26.58 719.305 26.58V29.58ZM719.429 29.792C719.436 29.7969 719.402 29.7719 719.371 29.7108C719.341 29.6497 719.341 29.6077 719.341 29.616H722.341C722.341 28.7172 721.948 27.9313 721.229 27.392L719.429 29.792ZM719.341 29.616V92.464H722.341V29.616H719.341ZM719.341 92.464C719.341 92.4699 719.34 92.4703 719.341 92.467C719.342 92.4636 719.343 92.4618 719.342 92.4628C719.342 92.4635 719.328 92.4957 719.268 92.5553L721.39 94.6767C721.972 94.0943 722.341 93.342 722.341 92.464H719.341ZM719.268 92.5553C719.279 92.5451 719.293 92.5333 719.31 92.5222C719.327 92.5112 719.343 92.5039 719.354 92.4995C719.378 92.4906 719.369 92.5 719.305 92.5V95.5C720.053 95.5 720.803 95.2638 721.39 94.6767L719.268 92.5553ZM719.305 92.5H704.329V95.5H719.305V92.5ZM746.17 92.464L745.637 93.8662L746.17 92.464ZM736.186 85.68L735.011 86.6128L735.02 86.6233L735.028 86.6336L736.186 85.68ZM733.114 73.52L732.053 72.4593L733.114 73.52ZM749.498 73.52L748.298 74.42L748.427 74.5914L748.598 74.72L749.498 73.52ZM753.082 79.536L752.25 80.7841L752.28 80.8039L752.31 80.8222L753.082 79.536ZM768.058 79.792L768.848 81.0674L768.869 81.0541L768.89 81.0401L768.058 79.792ZM760.89 69.552L760.519 71.0054L760.527 71.0074L760.535 71.0093L760.89 69.552ZM751.418 66.608L751.984 65.2189L751.945 65.2031L751.906 65.1895L751.418 66.608ZM738.362 59.696L737.396 60.8434L738.362 59.696ZM740.794 32.944L741.697 34.1415L741.701 34.139L740.794 32.944ZM774.714 30L774.113 31.3742L774.125 31.3795L774.137 31.3846L774.714 30ZM784.186 37.296L782.959 38.1584L782.966 38.1694L782.974 38.1802L784.186 37.296ZM787.13 49.2L786.069 48.1393V48.1393L787.13 49.2ZM771.258 49.2L770.058 50.1L770.187 50.2714L770.358 50.4L771.258 49.2ZM767.93 43.312L767.085 44.5513L767.098 44.56L767.111 44.5684L767.93 43.312ZM753.338 50.992L752.667 52.3336L752.68 52.3401L752.693 52.3463L753.338 50.992ZM762.17 53.68L762.565 52.2328L762.535 52.2248L762.505 52.2179L762.17 53.68ZM765.37 54.576L764.958 56.0183L765.006 56.0321L765.056 56.0427L765.37 54.576ZM769.21 55.6L768.763 57.0317L768.774 57.0351L768.785 57.0384L769.21 55.6ZM783.546 62.512L782.605 63.6805L783.546 62.512ZM781.242 89.648L782.108 90.8729L782.112 90.87L781.242 89.648ZM761.146 93.396C755.567 93.396 750.762 92.6044 746.703 91.0618L745.637 93.8662C750.111 95.5662 755.291 96.396 761.146 96.396V93.396ZM746.703 91.0618C742.628 89.5134 739.535 87.3874 737.344 84.7264L735.028 86.6336C737.615 89.7753 741.179 92.172 745.637 93.8662L746.703 91.0618ZM737.361 84.7472C735.265 82.1083 734.23 79.151 734.23 75.824H731.23C731.23 79.8356 732.499 83.449 735.011 86.6128L737.361 84.7472ZM734.23 75.824V74.544H731.23V75.824H734.23ZM734.23 74.544C734.23 74.4805 734.239 74.4709 734.23 74.4947C734.226 74.5063 734.219 74.5219 734.208 74.5391C734.197 74.5564 734.185 74.5704 734.175 74.5807L732.053 72.4593C731.466 73.0464 731.23 73.796 731.23 74.544H734.23ZM734.175 74.5807C734.234 74.521 734.266 74.507 734.267 74.5067C734.268 74.5063 734.266 74.5071 734.263 74.5078C734.26 74.5085 734.26 74.508 734.266 74.508V71.508C733.388 71.508 732.636 71.877 732.053 72.4593L734.175 74.5807ZM734.266 74.508H748.474V71.508H734.266V74.508ZM748.474 74.508C748.482 74.508 748.44 74.5082 748.379 74.4776C748.318 74.4471 748.293 74.4134 748.298 74.42L750.698 72.62C750.159 71.901 749.373 71.508 748.474 71.508V74.508ZM748.598 74.72C748.605 74.7249 748.571 74.6999 748.54 74.6388C748.51 74.5777 748.51 74.5358 748.51 74.544H751.51C751.51 73.6452 751.117 72.8593 750.398 72.32L748.598 74.72ZM748.51 74.544V74.672H751.51V74.544H748.51ZM748.51 74.672C748.51 77.2029 749.929 79.237 752.25 80.7841L753.914 78.2879C752.139 77.1043 751.51 75.8958 751.51 74.672H748.51ZM752.31 80.8222C754.732 82.2751 757.661 82.956 761.018 82.956V79.956C758.06 79.956 755.699 79.3569 753.854 78.2498L752.31 80.8222ZM761.018 82.956C764.097 82.956 766.745 82.3689 768.848 81.0674L767.268 78.5166C765.787 79.4337 763.741 79.956 761.018 79.956V82.956ZM768.89 81.0401C770.976 79.6495 772.246 77.7804 772.246 75.44H769.246C769.246 76.5129 768.724 77.5451 767.226 78.5439L768.89 81.0401ZM772.246 75.44C772.246 74.4095 771.984 73.4409 771.418 72.5919C770.858 71.7523 770.059 71.1153 769.113 70.6424L767.771 73.3256C768.361 73.6207 768.714 73.9436 768.922 74.2561C769.124 74.5591 769.246 74.9345 769.246 75.44H772.246ZM769.113 70.6424C767.417 69.7946 764.761 68.9523 761.245 68.0947L760.535 71.0093C764.016 71.8584 766.395 72.6374 767.771 73.3256L769.113 70.6424ZM761.261 68.0986C757.279 67.082 754.197 66.1204 751.984 65.2189L750.852 67.9971C753.247 68.9729 756.479 69.974 760.519 71.0054L761.261 68.0986ZM751.906 65.1895C746.56 63.3519 742.388 61.1256 739.328 58.5486L737.396 60.8434C740.821 63.7277 745.353 66.1094 750.93 68.0265L751.906 65.1895ZM739.328 58.5486C736.494 56.1622 734.998 52.6985 734.998 47.92H731.998C731.998 53.3814 733.744 57.7685 737.396 60.8434L739.328 58.5486ZM734.998 47.92C734.998 42.0559 737.225 37.5155 741.697 34.1415L739.891 31.7465C734.635 35.7112 731.998 41.1548 731.998 47.92H734.998ZM741.701 34.139C746.319 30.6352 752.499 28.812 760.378 28.812V25.812C752.044 25.812 745.167 27.7435 739.887 31.749L741.701 34.139ZM760.378 28.812C765.677 28.812 770.243 29.6814 774.113 31.3742L775.315 28.6258C770.993 26.7346 766.002 25.812 760.378 25.812V28.812ZM774.137 31.3846C778.011 32.9989 780.926 35.2663 782.959 38.1584L785.413 36.4336C783.008 33.011 779.609 30.4144 775.291 28.6154L774.137 31.3846ZM782.974 38.1802C785.086 41.0737 786.142 44.3463 786.142 48.048H789.142C789.142 43.7284 787.894 39.833 785.398 36.4118L782.974 38.1802ZM786.142 48.048C786.142 48.0539 786.141 48.0543 786.142 48.051C786.143 48.0476 786.144 48.0458 786.143 48.0468C786.143 48.0475 786.129 48.0797 786.069 48.1393L788.191 50.2607C788.773 49.6783 789.142 48.926 789.142 48.048H786.142ZM786.069 48.1393C786.08 48.1291 786.094 48.1173 786.111 48.1062C786.128 48.0952 786.144 48.0879 786.155 48.0835C786.179 48.0746 786.17 48.084 786.106 48.084V51.084C786.854 51.084 787.604 50.8478 788.191 50.2607L786.069 48.1393ZM786.106 48.084H772.41V51.084H786.106V48.084ZM772.41 48.084C772.308 48.084 772.24 48.0613 772.158 48L770.358 50.4C770.959 50.8507 771.659 51.084 772.41 51.084V48.084ZM772.458 48.3C772.397 48.2183 772.374 48.1501 772.374 48.048H769.374C769.374 48.7992 769.607 49.499 770.058 50.1L772.458 48.3ZM772.374 48.048C772.374 45.5355 771.017 43.5342 768.749 42.0556L767.111 44.5684C768.769 45.6498 769.374 46.8058 769.374 48.048H772.374ZM768.775 42.0727C766.569 40.5684 763.723 39.892 760.378 39.892V42.892C763.348 42.892 765.536 43.4956 767.085 44.5513L768.775 42.0727ZM760.378 39.892C757.392 39.892 754.808 40.4334 752.722 41.6256L754.21 44.2304C755.708 43.3746 757.732 42.892 760.378 42.892V39.892ZM752.722 41.6256C750.547 42.8681 749.278 44.7305 749.278 47.152H752.278C752.278 45.9895 752.801 45.0359 754.21 44.2304L752.722 41.6256ZM749.278 47.152C749.278 48.2678 749.561 49.3111 750.17 50.224C750.772 51.1276 751.636 51.818 752.667 52.3336L754.009 49.6504C753.333 49.3127 752.917 48.9363 752.666 48.5599C752.421 48.1929 752.278 47.7429 752.278 47.152H749.278ZM752.693 52.3463C754.643 53.2748 757.723 54.1998 761.835 55.1421L762.505 52.2179C758.425 51.2829 755.617 50.4159 753.983 49.6377L752.693 52.3463ZM761.775 55.1271C762.707 55.3812 763.768 55.6782 764.958 56.0183L765.782 53.1337C764.583 52.7912 763.51 52.4908 762.565 52.2328L761.775 55.1271ZM765.056 56.0427C766.199 56.2876 767.434 56.6165 768.763 57.0317L769.657 54.1683C768.255 53.7302 766.931 53.3764 765.684 53.1093L765.056 56.0427ZM768.785 57.0384C774.726 58.7958 779.308 61.0263 782.605 63.6805L784.487 61.3435C780.787 58.3657 775.811 55.9882 769.635 54.1616L768.785 57.0384ZM782.605 63.6805C785.68 66.1548 787.294 69.7787 787.294 74.8H790.294C790.294 69.0693 788.41 64.5012 784.487 61.3435L782.605 63.6805ZM787.294 74.8C787.294 80.642 785.001 85.1306 780.372 88.426L782.112 90.87C787.552 86.9974 790.294 81.5874 790.294 74.8H787.294ZM780.376 88.4231C775.762 91.6847 769.402 93.396 761.146 93.396V96.396C769.786 96.396 776.823 94.6086 782.108 90.8729L780.376 88.4231ZM836.279 42.288L837.34 43.3487V43.3487L836.279 42.288ZM823.991 76.72L822.827 77.6659L822.844 77.6871L822.862 77.7078L823.991 76.72ZM834.871 79.28L833.671 80.18L833.8 80.3514L833.971 80.48L834.871 79.28ZM833.847 94.128L833.918 95.6263L834.007 95.6221L834.094 95.6076L833.847 94.128ZM810.295 90.928L809.449 92.1667L809.459 92.1738L809.47 92.1808L810.295 90.928ZM804.919 77.616H803.419V77.6259L803.419 77.6357L804.919 77.616ZM795.831 42.288L794.631 43.188L794.76 43.3594L794.931 43.488L795.831 42.288ZM795.831 28.72L794.77 27.6593V27.6593L795.831 28.72ZM805.303 11.312L804.242 10.2513L805.303 11.312ZM821.815 11.312L820.615 12.212L820.744 12.3834L820.915 12.512L821.815 11.312ZM836.279 28.72L835.079 29.62L835.208 29.7914L835.379 29.92L836.279 28.72ZM835.291 41.136C835.291 41.1419 835.29 41.1423 835.291 41.139C835.292 41.1356 835.293 41.1338 835.292 41.1348C835.292 41.1355 835.278 41.1677 835.218 41.2273L837.34 43.3487C837.922 42.7663 838.291 42.014 838.291 41.136H835.291ZM835.218 41.2273C835.229 41.2171 835.243 41.2053 835.26 41.1942C835.277 41.1832 835.293 41.1759 835.304 41.1715C835.328 41.1626 835.319 41.172 835.255 41.172V44.172C836.003 44.172 836.753 43.9358 837.34 43.3487L835.218 41.2273ZM835.255 41.172H822.967V44.172H835.255V41.172ZM822.967 41.172C822.522 41.172 821.914 41.2841 821.426 41.7713C820.939 42.2585 820.827 42.8674 820.827 43.312H823.827C823.827 43.3299 823.822 43.6188 823.548 43.8927C823.274 44.1665 822.985 44.172 822.967 44.172V41.172ZM820.827 43.312V70.448H823.827V43.312H820.827ZM820.827 70.448C820.827 73.415 821.404 75.9141 822.827 77.6659L825.155 75.7741C824.36 74.7953 823.827 73.113 823.827 70.448H820.827ZM822.862 77.7078C824.444 79.5153 826.814 80.268 829.623 80.268V77.268C827.312 77.268 825.928 76.6554 825.12 75.7322L822.862 77.7078ZM829.623 80.268H833.847V77.268H829.623V80.268ZM833.847 80.268C833.855 80.268 833.813 80.2682 833.752 80.2376C833.691 80.2071 833.666 80.1734 833.671 80.18L836.071 78.38C835.532 77.661 834.746 77.268 833.847 77.268V80.268ZM833.971 80.48C833.978 80.485 833.944 80.4599 833.913 80.3988C833.883 80.3377 833.883 80.2957 833.883 80.304H836.883C836.883 79.4052 836.49 78.6193 835.771 78.08L833.971 80.48ZM833.883 80.304V92.464H836.883V80.304H833.883ZM833.883 92.464C833.883 92.5636 833.869 92.6059 833.868 92.6095C833.868 92.6111 833.869 92.6055 833.875 92.5956C833.881 92.5855 833.889 92.5754 833.897 92.5666C833.938 92.5218 833.905 92.5976 833.6 92.6484L834.094 95.6076C834.813 95.4878 835.548 95.2009 836.101 94.6014C836.671 93.9837 836.883 93.2144 836.883 92.464H833.883ZM833.776 92.6297C830.193 92.8003 827.664 92.884 826.167 92.884V95.884C827.742 95.884 830.333 95.797 833.918 95.6263L833.776 92.6297ZM826.167 92.884C819.197 92.884 814.257 91.7412 811.12 89.6752L809.47 92.1808C813.33 94.7228 818.972 95.884 826.167 95.884V92.884ZM811.141 89.6893C808.226 87.6989 806.501 83.8628 806.419 77.5963L803.419 77.6357C803.507 84.3399 805.366 89.3785 809.449 92.1667L811.141 89.6893ZM806.419 77.616V43.312H803.419V77.616H806.419ZM806.419 43.312C806.419 42.8674 806.307 42.2585 805.82 41.7713C805.332 41.2841 804.724 41.172 804.279 41.172V44.172C804.261 44.172 803.972 44.1665 803.698 43.8927C803.424 43.6188 803.419 43.3299 803.419 43.312H806.419ZM804.279 41.172H796.983V44.172H804.279V41.172ZM796.983 41.172C796.881 41.172 796.813 41.1493 796.731 41.088L794.931 43.488C795.532 43.9387 796.232 44.172 796.983 44.172V41.172ZM797.031 41.388C796.97 41.3063 796.947 41.2381 796.947 41.136H793.947C793.947 41.8872 794.18 42.587 794.631 43.188L797.031 41.388ZM796.947 41.136V29.744H793.947V41.136H796.947ZM796.947 29.744C796.947 29.6805 796.956 29.6709 796.948 29.6947C796.943 29.7063 796.936 29.7219 796.925 29.7391C796.914 29.7563 796.902 29.7704 796.892 29.7807L794.77 27.6593C794.183 28.2464 793.947 28.9959 793.947 29.744H796.947ZM796.892 29.7807C796.951 29.7211 796.984 29.707 796.984 29.7067C796.985 29.7063 796.983 29.7071 796.98 29.7078C796.977 29.7085 796.977 29.708 796.983 29.708V26.708C796.105 26.708 795.353 27.077 794.77 27.6593L796.892 29.7807ZM796.983 29.708H804.279V26.708H796.983V29.708ZM804.279 29.708C804.724 29.708 805.332 29.5958 805.82 29.1087C806.307 28.6215 806.419 28.0125 806.419 27.568H803.419C803.419 27.5501 803.424 27.2612 803.698 26.9873C803.972 26.7135 804.261 26.708 804.279 26.708V29.708ZM806.419 27.568V12.336H803.419V27.568H806.419ZM806.419 12.336C806.419 12.2725 806.428 12.2629 806.419 12.2867C806.415 12.2983 806.408 12.3139 806.397 12.3311C806.386 12.3483 806.374 12.3624 806.364 12.3727L804.242 10.2513C803.655 10.8384 803.419 11.5879 803.419 12.336H806.419ZM806.364 12.3727C806.423 12.313 806.456 12.299 806.456 12.2987C806.457 12.2983 806.455 12.2991 806.452 12.2998C806.449 12.3005 806.449 12.3 806.455 12.3V9.3C805.577 9.3 804.825 9.66897 804.242 10.2513L806.364 12.3727ZM806.455 12.3H820.791V9.3H806.455V12.3ZM820.791 12.3C820.799 12.3 820.757 12.3002 820.696 12.2696C820.635 12.2391 820.61 12.2054 820.615 12.212L823.015 10.412C822.476 9.69296 821.69 9.3 820.791 9.3V12.3ZM820.915 12.512C820.922 12.5169 820.888 12.4919 820.857 12.4308C820.827 12.3697 820.827 12.3277 820.827 12.336H823.827C823.827 11.4372 823.434 10.6513 822.715 10.112L820.915 12.512ZM820.827 12.336V27.568H823.827V12.336H820.827ZM820.827 27.568C820.827 28.0125 820.939 28.6215 821.426 29.1087C821.914 29.5958 822.522 29.708 822.967 29.708V26.708C822.985 26.708 823.274 26.7135 823.548 26.9873C823.822 27.2612 823.827 27.5501 823.827 27.568H820.827ZM822.967 29.708H835.255V26.708H822.967V29.708ZM835.255 29.708C835.263 29.708 835.221 29.7082 835.16 29.6776C835.099 29.6471 835.074 29.6134 835.079 29.62L837.479 27.82C836.94 27.1009 836.154 26.708 835.255 26.708V29.708ZM835.379 29.92C835.386 29.9249 835.352 29.8999 835.321 29.8388C835.291 29.7777 835.291 29.7357 835.291 29.744H838.291C838.291 28.8452 837.898 28.0593 837.179 27.52L835.379 29.92ZM835.291 29.744V41.136H838.291V29.744H835.291ZM858.92 92.464L858.387 93.8662L858.92 92.464ZM848.936 85.68L847.761 86.6128L847.77 86.6233L847.778 86.6336L848.936 85.68ZM845.864 73.52L844.803 72.4593L845.864 73.52ZM862.248 73.52L861.048 74.42L861.177 74.5914L861.348 74.72L862.248 73.52ZM865.832 79.536L865 80.7841L865.03 80.8039L865.06 80.8222L865.832 79.536ZM880.808 79.792L881.598 81.0674L881.619 81.0541L881.64 81.0401L880.808 79.792ZM873.64 69.552L873.269 71.0054L873.277 71.0074L873.285 71.0093L873.64 69.552ZM864.168 66.608L864.734 65.2189L864.695 65.2031L864.656 65.1895L864.168 66.608ZM851.112 59.696L850.146 60.8434L851.112 59.696ZM853.544 32.944L854.447 34.1415L854.451 34.139L853.544 32.944ZM887.464 30L886.863 31.3742L886.875 31.3795L886.887 31.3846L887.464 30ZM896.936 37.296L895.709 38.1584L895.716 38.1694L895.724 38.1802L896.936 37.296ZM899.88 49.2L898.819 48.1393V48.1393L899.88 49.2ZM884.008 49.2L882.808 50.1L882.937 50.2714L883.108 50.4L884.008 49.2ZM880.68 43.312L879.835 44.5513L879.848 44.56L879.861 44.5684L880.68 43.312ZM866.088 50.992L865.417 52.3336L865.43 52.3401L865.443 52.3463L866.088 50.992ZM874.92 53.68L875.315 52.2328L875.285 52.2248L875.255 52.2179L874.92 53.68ZM878.12 54.576L877.708 56.0183L877.756 56.0321L877.806 56.0427L878.12 54.576ZM881.96 55.6L881.513 57.0317L881.524 57.0351L881.535 57.0384L881.96 55.6ZM896.296 62.512L895.355 63.6805L896.296 62.512ZM893.992 89.648L894.858 90.8729L894.862 90.87L893.992 89.648ZM873.896 93.396C868.317 93.396 863.512 92.6044 859.453 91.0618L858.387 93.8662C862.861 95.5662 868.041 96.396 873.896 96.396V93.396ZM859.453 91.0618C855.378 89.5134 852.285 87.3874 850.094 84.7264L847.778 86.6336C850.365 89.7753 853.929 92.172 858.387 93.8662L859.453 91.0618ZM850.111 84.7472C848.015 82.1083 846.98 79.151 846.98 75.824H843.98C843.98 79.8356 845.249 83.449 847.761 86.6128L850.111 84.7472ZM846.98 75.824V74.544H843.98V75.824H846.98ZM846.98 74.544C846.98 74.4805 846.989 74.4709 846.98 74.4947C846.976 74.5063 846.969 74.5219 846.958 74.5391C846.947 74.5564 846.935 74.5704 846.925 74.5807L844.803 72.4593C844.216 73.0464 843.98 73.796 843.98 74.544H846.98ZM846.925 74.5807C846.984 74.521 847.016 74.507 847.017 74.5067C847.018 74.5063 847.016 74.5071 847.013 74.5078C847.01 74.5085 847.01 74.508 847.016 74.508V71.508C846.138 71.508 845.386 71.877 844.803 72.4593L846.925 74.5807ZM847.016 74.508H861.224V71.508H847.016V74.508ZM861.224 74.508C861.232 74.508 861.19 74.5082 861.129 74.4776C861.068 74.4471 861.043 74.4134 861.048 74.42L863.448 72.62C862.909 71.901 862.123 71.508 861.224 71.508V74.508ZM861.348 74.72C861.355 74.7249 861.321 74.6999 861.29 74.6388C861.26 74.5777 861.26 74.5358 861.26 74.544H864.26C864.26 73.6452 863.867 72.8593 863.148 72.32L861.348 74.72ZM861.26 74.544V74.672H864.26V74.544H861.26ZM861.26 74.672C861.26 77.2029 862.679 79.237 865 80.7841L866.664 78.2879C864.889 77.1043 864.26 75.8958 864.26 74.672H861.26ZM865.06 80.8222C867.482 82.2751 870.411 82.956 873.768 82.956V79.956C870.81 79.956 868.449 79.3569 866.604 78.2498L865.06 80.8222ZM873.768 82.956C876.847 82.956 879.495 82.3689 881.598 81.0674L880.018 78.5166C878.537 79.4337 876.491 79.956 873.768 79.956V82.956ZM881.64 81.0401C883.726 79.6495 884.996 77.7804 884.996 75.44H881.996C881.996 76.5129 881.474 77.5451 879.976 78.5439L881.64 81.0401ZM884.996 75.44C884.996 74.4095 884.734 73.4409 884.168 72.5919C883.608 71.7523 882.809 71.1153 881.863 70.6424L880.521 73.3256C881.111 73.6207 881.464 73.9436 881.672 74.2561C881.874 74.5591 881.996 74.9345 881.996 75.44H884.996ZM881.863 70.6424C880.167 69.7946 877.511 68.9523 873.995 68.0947L873.285 71.0093C876.766 71.8584 879.145 72.6374 880.521 73.3256L881.863 70.6424ZM874.011 68.0986C870.029 67.082 866.947 66.1204 864.734 65.2189L863.602 67.9971C865.997 68.9729 869.229 69.974 873.269 71.0054L874.011 68.0986ZM864.656 65.1895C859.31 63.3519 855.138 61.1256 852.078 58.5486L850.146 60.8434C853.571 63.7277 858.103 66.1094 863.68 68.0265L864.656 65.1895ZM852.078 58.5486C849.244 56.1622 847.748 52.6985 847.748 47.92H844.748C844.748 53.3814 846.494 57.7685 850.146 60.8434L852.078 58.5486ZM847.748 47.92C847.748 42.0559 849.975 37.5155 854.447 34.1415L852.641 31.7465C847.385 35.7112 844.748 41.1548 844.748 47.92H847.748ZM854.451 34.139C859.069 30.6352 865.249 28.812 873.128 28.812V25.812C864.794 25.812 857.917 27.7435 852.637 31.749L854.451 34.139ZM873.128 28.812C878.427 28.812 882.993 29.6814 886.863 31.3742L888.065 28.6258C883.743 26.7346 878.752 25.812 873.128 25.812V28.812ZM886.887 31.3846C890.761 32.9989 893.676 35.2663 895.709 38.1584L898.163 36.4336C895.758 33.011 892.359 30.4144 888.041 28.6154L886.887 31.3846ZM895.724 38.1802C897.836 41.0737 898.892 44.3463 898.892 48.048H901.892C901.892 43.7284 900.644 39.833 898.148 36.4118L895.724 38.1802ZM898.892 48.048C898.892 48.0539 898.891 48.0543 898.892 48.051C898.893 48.0476 898.894 48.0458 898.893 48.0468C898.893 48.0475 898.879 48.0797 898.819 48.1393L900.941 50.2607C901.523 49.6783 901.892 48.926 901.892 48.048H898.892ZM898.819 48.1393C898.83 48.1291 898.844 48.1173 898.861 48.1062C898.878 48.0952 898.894 48.0879 898.905 48.0835C898.929 48.0746 898.92 48.084 898.856 48.084V51.084C899.604 51.084 900.354 50.8478 900.941 50.2607L898.819 48.1393ZM898.856 48.084H885.16V51.084H898.856V48.084ZM885.16 48.084C885.058 48.084 884.99 48.0613 884.908 48L883.108 50.4C883.709 50.8507 884.409 51.084 885.16 51.084V48.084ZM885.208 48.3C885.147 48.2183 885.124 48.1501 885.124 48.048H882.124C882.124 48.7992 882.357 49.499 882.808 50.1L885.208 48.3ZM885.124 48.048C885.124 45.5355 883.767 43.5342 881.499 42.0556L879.861 44.5684C881.519 45.6498 882.124 46.8058 882.124 48.048H885.124ZM881.525 42.0727C879.319 40.5684 876.473 39.892 873.128 39.892V42.892C876.098 42.892 878.286 43.4956 879.835 44.5513L881.525 42.0727ZM873.128 39.892C870.142 39.892 867.558 40.4334 865.472 41.6256L866.96 44.2304C868.458 43.3746 870.482 42.892 873.128 42.892V39.892ZM865.472 41.6256C863.297 42.8681 862.028 44.7305 862.028 47.152H865.028C865.028 45.9895 865.551 45.0359 866.96 44.2304L865.472 41.6256ZM862.028 47.152C862.028 48.2678 862.311 49.3111 862.92 50.224C863.522 51.1276 864.386 51.818 865.417 52.3336L866.759 49.6504C866.083 49.3127 865.667 48.9363 865.416 48.5599C865.171 48.1929 865.028 47.7429 865.028 47.152H862.028ZM865.443 52.3463C867.393 53.2748 870.473 54.1998 874.585 55.1421L875.255 52.2179C871.175 51.2829 868.367 50.4159 866.733 49.6377L865.443 52.3463ZM874.525 55.1271C875.457 55.3812 876.518 55.6782 877.708 56.0183L878.532 53.1337C877.333 52.7912 876.26 52.4908 875.315 52.2328L874.525 55.1271ZM877.806 56.0427C878.949 56.2876 880.184 56.6165 881.513 57.0317L882.407 54.1683C881.005 53.7302 879.681 53.3764 878.434 53.1093L877.806 56.0427ZM881.535 57.0384C887.476 58.7958 892.058 61.0263 895.355 63.6805L897.237 61.3435C893.537 58.3657 888.561 55.9882 882.385 54.1616L881.535 57.0384ZM895.355 63.6805C898.43 66.1548 900.044 69.7787 900.044 74.8H903.044C903.044 69.0693 901.16 64.5012 897.237 61.3435L895.355 63.6805ZM900.044 74.8C900.044 80.642 897.751 85.1306 893.122 88.426L894.862 90.87C900.302 86.9974 903.044 81.5874 903.044 74.8H900.044ZM893.126 88.4231C888.512 91.6847 882.152 93.396 873.896 93.396V96.396C882.536 96.396 889.573 94.6086 894.858 90.8729L893.126 88.4231Z" fill="white"/>
</g>
<defs>
<filter id="filter0_b_21_82" x="-22.3924" y="-22.64" width="947.136" height="140.864" filterUnits="userSpaceOnUse" color-interpolation-filters="sRGB">
<feFlood flood-opacity="0" result="BackgroundImageFix"/>
<feGaussianBlur in="BackgroundImageFix" stdDeviation="11.6"/>
<feComposite in2="SourceAlpha" operator="in" result="effect1_backgroundBlur_21_82"/>
<feBlend mode="normal" in="SourceGraphic" in2="effect1_backgroundBlur_21_82" result="shape"/>
</filter>
<linearGradient id="paint0_linear_21_82" x1="451.428" y1="110.731" x2="451.428" y2="-5.66287" gradientUnits="userSpaceOnUse">
<stop offset="0.58"/>
<stop offset="0.5801" stop-color="white" stop-opacity="0"/>
</linearGradient>
</defs>
</svg>
