<svg width="22" height="23" viewBox="0 0 22 23" fill="none" xmlns="http://www.w3.org/2000/svg">
<path d="M7.33334 20.8667H14.6667C18.3517 20.8667 19.0117 19.3909 19.2042 17.5942L19.8917 10.2609C20.1392 8.02424 19.4975 6.20007 15.5833 6.20007H6.41667C2.5025 6.20007 1.86084 8.02424 2.10834 10.2609L2.79584 17.5942C2.98834 19.3909 3.64834 20.8667 7.33334 20.8667Z" stroke="#172430" stroke-width="1.5" stroke-miterlimit="10" stroke-linecap="round" stroke-linejoin="round"/>
<path d="M7.33325 6.20011V5.46678C7.33325 3.84428 7.33325 2.53345 10.2666 2.53345H11.7333C14.6666 2.53345 14.6666 3.84428 14.6666 5.46678V6.20011" stroke="#172430" stroke-width="1.5" stroke-miterlimit="10" stroke-linecap="round" stroke-linejoin="round"/>
<path d="M12.8334 12.6167V13.5334C12.8334 13.5426 12.8334 13.5426 12.8334 13.5517C12.8334 14.5509 12.8242 15.3667 11.0001 15.3667C9.18508 15.3667 9.16675 14.5601 9.16675 13.5609V12.6167C9.16675 11.7001 9.16675 11.7001 10.0834 11.7001H11.9167C12.8334 11.7001 12.8334 11.7001 12.8334 12.6167Z" stroke="#172430" stroke-width="1.5" stroke-miterlimit="10" stroke-linecap="round" stroke-linejoin="round"/>
<path d="M19.8458 10.7834C17.7283 12.3234 15.3083 13.2401 12.8333 13.5518" stroke="#172430" stroke-width="1.5" stroke-miterlimit="10" stroke-linecap="round" stroke-linejoin="round"/>
<path d="M2.40161 11.0309C4.46411 12.4426 6.79244 13.2951 9.16661 13.5609" stroke="#172430" stroke-width="1.5" stroke-miterlimit="10" stroke-linecap="round" stroke-linejoin="round"/>
</svg>
