<svg width="24" height="25" viewBox="0 0 24 25" fill="none" xmlns="http://www.w3.org/2000/svg">
<g clip-path="url(#clip0_700_169)">
<path d="M10.97 2.70007H8.96997C3.96997 2.70007 1.96997 4.70007 1.96997 9.70007V15.7001C1.96997 20.7001 3.96997 22.7001 8.96997 22.7001H14.97C19.97 22.7001 21.97 20.7001 21.97 15.7001V13.7001" stroke="#172430" stroke-width="1.5" stroke-linecap="round" stroke-linejoin="round"/>
<path d="M21.8799 4.26005C20.6499 7.33005 17.5599 11.51 14.9799 13.58L13.3999 14.84C13.1999 14.99 12.9999 15.11 12.7699 15.2C12.7699 15.05 12.7599 14.9 12.7399 14.74C12.6499 14.07 12.3499 13.44 11.8099 12.91C11.2599 12.36 10.5999 12.05 9.91994 11.96C9.75994 11.95 9.59994 11.94 9.43994 11.95C9.52994 11.7 9.65994 11.47 9.82994 11.28L11.0899 9.70005C13.1599 7.12005 17.3499 4.01005 20.4099 2.78005C20.8799 2.60005 21.3399 2.74005 21.6299 3.03005C21.9299 3.33005 22.0699 3.79005 21.8799 4.26005Z" stroke="#172430" stroke-width="1.5" stroke-linecap="round" stroke-linejoin="round"/>
<path d="M12.78 15.1901C12.78 16.0701 12.44 16.9101 11.81 17.5501C11.32 18.0401 10.66 18.3801 9.86997 18.4801L7.89997 18.6901C6.82997 18.8101 5.90997 17.9001 6.02997 16.8101L6.23997 14.8401C6.42997 13.0901 7.88997 11.9701 9.44997 11.9401C9.60997 11.9301 9.76997 11.9401 9.92997 11.9501C10.61 12.0401 11.27 12.3501 11.82 12.9001C12.36 13.4401 12.66 14.0601 12.75 14.7301C12.77 14.8901 12.78 15.0501 12.78 15.1901Z" stroke="#172430" stroke-width="1.5" stroke-linecap="round" stroke-linejoin="round"/>
<path d="M15.82 12.68C15.82 10.59 14.13 8.89001 12.03 8.89001" stroke="#172430" stroke-width="1.5" stroke-linecap="round" stroke-linejoin="round"/>
</g>
<defs>
<clipPath id="clip0_700_169">
<rect width="24" height="24" fill="white" transform="translate(0 0.700073)"/>
</clipPath>
</defs>
</svg>
