<svg width="22" height="23" viewBox="0 0 22 23" fill="none" xmlns="http://www.w3.org/2000/svg">
<path d="M8.25004 20.8668H13.75C18.3334 20.8668 20.1667 19.0334 20.1667 14.4501V8.95011C20.1667 4.36678 18.3334 2.53345 13.75 2.53345H8.25004C3.66671 2.53345 1.83337 4.36678 1.83337 8.95011V14.4501C1.83337 19.0334 3.66671 20.8668 8.25004 20.8668Z" stroke="#172430" stroke-width="1.5" stroke-linecap="round" stroke-linejoin="round"/>
<path d="M8.34167 11.7001V10.3434C8.34167 8.59257 9.57917 7.88673 11.0917 8.75756L12.265 9.4359L13.4383 10.1142C14.9508 10.9851 14.9508 12.4151 13.4383 13.2859L12.265 13.9642L11.0917 14.6426C9.57917 15.5134 8.34167 14.7984 8.34167 13.0567V11.7001Z" stroke="#172430" stroke-width="1.5" stroke-miterlimit="10" stroke-linecap="round" stroke-linejoin="round"/>
</svg>
