<svg width="28" height="23" viewBox="0 0 28 23" fill="none" xmlns="http://www.w3.org/2000/svg">
<path d="M9.91336 1.26518C9.85476 1.20529 9.75974 1.20529 9.70114 1.26518L5.02349 6.10443C4.96488 6.16432 4.96488 6.26143 5.02349 6.32133L7.21225 8.55834C7.27085 8.61824 7.36587 8.61824 7.42447 8.55834L9.91336 6.01459C9.97196 5.95469 9.97196 5.85759 9.91336 5.79769L9.30024 5.17105C9.24164 5.11116 9.24164 5.01405 9.30024 4.95416L11.2768 2.87556C11.3354 2.81566 11.3354 2.71856 11.2768 2.65866L9.91336 1.26518Z" fill="black"/>
<path d="M0.944339 17.0217C0.897637 17.0695 0.886961 17.1428 0.918042 17.2024L2.57115 20.3702C2.61857 20.4611 2.73841 20.4793 2.80967 20.4065L11.5484 11.4752C11.6127 11.4094 11.7191 11.4169 11.7741 11.4911L19.3533 21.7191C19.3816 21.7573 19.4259 21.7798 19.4729 21.7798H24.1842C24.3107 21.7798 24.3804 21.6296 24.3004 21.5295L11.9252 6.03755C11.869 5.96722 11.7657 5.9619 11.7028 6.0261L0.944339 17.0217Z" fill="black"/>
<path d="M6.105 18.7125C6.0652 18.7125 6.02703 18.7286 5.99889 18.7574L3.29778 21.518C3.20325 21.6146 3.2702 21.7798 3.40389 21.7798H8.51885C8.60173 21.7798 8.66891 21.7112 8.66891 21.6265V18.8658C8.66891 18.7811 8.60173 18.7125 8.51885 18.7125H6.105Z" fill="black"/>
<path d="M21.0667 15.1083C20.9399 15.1083 20.8702 15.259 20.9508 15.3591L25.4759 20.9801C25.5458 21.0668 25.6801 21.05 25.7273 20.9486L27.085 18.0345C27.1103 17.9804 27.1023 17.9161 27.0646 17.8701L24.8455 15.1632C24.817 15.1284 24.7749 15.1083 24.7305 15.1083H21.0667Z" fill="black"/>
<path fill-rule="evenodd" clip-rule="evenodd" d="M4.38684 5.45374L9.06449 0.614494C9.47471 0.195234 10.1398 0.195233 10.55 0.614494L11.9134 2.00797C12.3237 2.42723 12.3237 3.10699 11.9134 3.52625L10.4674 5.0626L10.55 5.147C10.6847 5.28461 10.922 5.52272 10.922 5.52272L11.0662 5.37541C11.5059 4.92597 12.2293 4.96323 12.6226 5.45559L20.107 14.1881C20.107 14.1881 20.6138 14.1881 21.0667 14.1881H24.7305C25.0413 14.1881 25.3361 14.3287 25.5357 14.5722L27.7547 17.2791C28.0187 17.6011 28.0747 18.0509 27.8979 18.4302L26.5402 21.3443C26.2905 21.8803 26.0375 22.117 25.5508 22.3933C25.0732 22.6646 24.7098 22.7 24.1842 22.7H19.4729C19.144 22.7 18.8341 22.5426 18.6355 22.2746L11.5762 12.7481L6.64088 17.7922H8.51886C9.099 17.7922 9.56929 18.2729 9.56929 18.8658V21.6265C9.56929 22.2194 9.099 22.7 8.51886 22.7H3.4039C2.65759 22.7 2.14125 21.4731 2.14125 21.4731C2.14125 21.4731 1.91471 21.0677 1.77671 20.8033L0.123607 17.6354C-0.0939609 17.2185 -0.0192248 16.7052 0.307691 16.371L6.94542 9.58701C6.94542 9.58701 6.71025 9.34664 6.5756 9.20903L4.38684 6.97202C3.97662 6.55276 3.97662 5.87299 4.38684 5.45374ZM3.29778 21.518C3.20325 21.6146 3.2702 21.7798 3.40389 21.7798H8.51885C8.60173 21.7798 8.66891 21.7112 8.66891 21.6265V18.8658C8.66891 18.7811 8.60173 18.7125 8.51885 18.7125H6.105C6.0652 18.7125 6.02703 18.7286 5.99889 18.7574L3.29778 21.518ZM25.4759 20.9801C25.5458 21.0668 25.6801 21.05 25.7273 20.9486L27.085 18.0345C27.1103 17.9804 27.1023 17.9161 27.0646 17.8701L24.8455 15.1632C24.817 15.1284 24.7749 15.1083 24.7305 15.1083H21.0667C20.9399 15.1083 20.8702 15.259 20.9508 15.3591L25.4759 20.9801ZM2.80967 20.4065C2.73841 20.4793 2.61857 20.4611 2.57115 20.3702L0.918042 17.2024C0.886961 17.1428 0.897637 17.0695 0.944339 17.0217L11.7028 6.0261C11.7657 5.9619 11.869 5.96722 11.9252 6.03755L24.3004 21.5295C24.3804 21.6296 24.3107 21.7798 24.1842 21.7798H19.4729C19.4259 21.7798 19.3816 21.7573 19.3533 21.7191L11.7741 11.4911C11.7191 11.4169 11.6127 11.4094 11.5484 11.4752L2.80967 20.4065ZM9.70114 1.26518C9.75974 1.20529 9.85476 1.20529 9.91336 1.26518L11.2768 2.65866C11.3354 2.71856 11.3354 2.81566 11.2768 2.87556L9.30024 4.95416C9.24164 5.01405 9.24164 5.11116 9.30024 5.17105L9.91336 5.79769C9.97196 5.85759 9.97196 5.95469 9.91336 6.01459L7.42447 8.55834C7.36587 8.61824 7.27085 8.61824 7.21225 8.55834L5.02349 6.32133C4.96488 6.26143 4.96488 6.16432 5.02349 6.10443L9.70114 1.26518Z" fill="#F6F6F6" fill-opacity="0.03"/>
</svg>
