<svg width="22" height="23" viewBox="0 0 22 23" fill="none" xmlns="http://www.w3.org/2000/svg">
<path d="M7.79171 18.1168H7.33337C3.66671 18.1168 1.83337 17.2001 1.83337 12.6168V8.03345C1.83337 4.36678 3.66671 2.53345 7.33337 2.53345H14.6667C18.3334 2.53345 20.1667 4.36678 20.1667 8.03345V12.6168C20.1667 16.2834 18.3334 18.1168 14.6667 18.1168H14.2084C13.9242 18.1168 13.6492 18.2543 13.475 18.4834L12.1 20.3168C11.495 21.1234 10.505 21.1234 9.90004 20.3168L8.52504 18.4834C8.37837 18.2818 8.03921 18.1168 7.79171 18.1168Z" stroke="#172430" stroke-width="1.5" stroke-miterlimit="10" stroke-linecap="round" stroke-linejoin="round"/>
<path d="M14.6635 10.7834H14.6717" stroke="#172430" stroke-width="2" stroke-linecap="round" stroke-linejoin="round"/>
<path d="M10.9959 10.7834H11.0041" stroke="#172430" stroke-width="2" stroke-linecap="round" stroke-linejoin="round"/>
<path d="M7.32825 10.7834H7.33648" stroke="#172430" stroke-width="2" stroke-linecap="round" stroke-linejoin="round"/>
</svg>
