<svg width="32" height="25" viewBox="0 0 32 25" fill="none" xmlns="http://www.w3.org/2000/svg">
<path d="M11.3083 1.07673C11.2415 1.00988 11.1331 1.00988 11.0662 1.07673L5.73036 6.47788C5.66352 6.54472 5.66352 6.65311 5.73036 6.71996L8.22712 9.21672C8.29397 9.28357 8.40235 9.28357 8.4692 9.21672L11.3083 6.3776C11.3752 6.31075 11.3752 6.20237 11.3083 6.13552L10.6089 5.43612C10.5421 5.36927 10.5421 5.26089 10.6089 5.19404L12.8636 2.87409C12.9304 2.80724 12.9304 2.69886 12.8636 2.63201L11.3083 1.07673Z" fill="black"/>
<path d="M1.07722 18.6628C1.02395 18.7161 1.01177 18.7979 1.04722 18.8644L2.93295 22.4001C2.98704 22.5016 3.12374 22.5219 3.20503 22.4406L13.1734 12.4723C13.2468 12.3988 13.3682 12.4072 13.4309 12.49L22.0766 23.9056C22.1089 23.9483 22.1594 23.9734 22.213 23.9734H27.5872C27.7315 23.9734 27.8111 23.8058 27.7198 23.694L13.6032 6.40324C13.5391 6.32473 13.4212 6.31879 13.3496 6.39045L1.07722 18.6628Z" fill="black"/>
<path d="M6.96406 20.5499C6.91866 20.5499 6.87512 20.5679 6.84302 20.6L3.76182 23.6812C3.65399 23.789 3.73036 23.9734 3.88287 23.9734H9.71758C9.81212 23.9734 9.88875 23.8968 9.88875 23.8022V20.721C9.88875 20.6265 9.81212 20.5499 9.71758 20.5499H6.96406Z" fill="black"/>
<path d="M24.031 16.5272C23.8864 16.5272 23.807 16.6955 23.8988 16.8071L29.0608 23.0809C29.1404 23.1776 29.2936 23.1588 29.3475 23.0457L30.8963 19.7932C30.9251 19.7328 30.916 19.6611 30.873 19.6097L28.3416 16.5884C28.3091 16.5496 28.2611 16.5272 28.2104 16.5272H24.031Z" fill="black"/>
<path fill-rule="evenodd" clip-rule="evenodd" d="M5.00413 5.75163L10.34 0.350483C10.8079 -0.117458 11.5666 -0.117459 12.0346 0.350483L13.5898 1.90576C14.0578 2.3737 14.0578 3.13239 13.5898 3.60033L11.9404 5.31508L12.0346 5.40927C12.1882 5.56286 12.4589 5.82862 12.4589 5.82862L12.6234 5.6642C13.125 5.16258 13.9502 5.20416 14.3988 5.75369L22.9364 15.5001C22.9364 15.5001 23.5145 15.5001 24.031 15.5001H28.2104C28.5649 15.5001 28.9012 15.6571 29.1289 15.9288L31.6602 18.9501C31.9613 19.3095 32.0252 19.8115 31.8236 20.2348L30.2748 23.4873C29.9899 24.0855 29.7014 24.3497 29.1462 24.6581C28.6013 24.9609 28.1868 25.0005 27.5872 25.0005H22.213C21.8378 25.0005 21.4843 24.8247 21.2578 24.5257L13.2051 13.893L7.57535 19.5228H9.71758C10.3794 19.5228 10.9158 20.0593 10.9158 20.721V23.8022C10.9158 24.464 10.3794 25.0005 9.71758 25.0005H3.88288C3.03156 25.0005 2.44256 23.6311 2.44256 23.6311C2.44256 23.6311 2.18414 23.1786 2.02672 22.8835L0.141 19.3477C-0.107183 18.8824 -0.02193 18.3095 0.350987 17.9366L7.92274 10.3648C7.92274 10.3648 7.65448 10.0966 7.50088 9.94296L5.00413 7.44621C4.53619 6.97827 4.53619 6.21957 5.00413 5.75163ZM3.76182 23.6812C3.65399 23.789 3.73036 23.9734 3.88287 23.9734H9.71758C9.81212 23.9734 9.88875 23.8968 9.88875 23.8022V20.721C9.88875 20.6265 9.81212 20.5499 9.71758 20.5499H6.96406C6.91866 20.5499 6.87512 20.5679 6.84302 20.6L3.76182 23.6812ZM29.0608 23.0809C29.1404 23.1776 29.2936 23.1588 29.3475 23.0457L30.8963 19.7932C30.9251 19.7328 30.916 19.6611 30.873 19.6097L28.3416 16.5884C28.3091 16.5496 28.2611 16.5272 28.2104 16.5272H24.031C23.8864 16.5272 23.807 16.6955 23.8988 16.8071L29.0608 23.0809ZM3.20503 22.4406C3.12374 22.5219 2.98704 22.5016 2.93295 22.4001L1.04722 18.8644C1.01177 18.7979 1.02395 18.7161 1.07722 18.6628L13.3496 6.39045C13.4212 6.31879 13.5391 6.32473 13.6032 6.40324L27.7198 23.694C27.8111 23.8058 27.7315 23.9734 27.5872 23.9734H22.213C22.1594 23.9734 22.1089 23.9483 22.0766 23.9056L13.4309 12.49C13.3682 12.4072 13.2468 12.3988 13.1734 12.4723L3.20503 22.4406ZM11.0662 1.07673C11.1331 1.00988 11.2415 1.00988 11.3083 1.07673L12.8636 2.63201C12.9304 2.69886 12.9304 2.80724 12.8636 2.87409L10.6089 5.19404C10.5421 5.26089 10.5421 5.36927 10.6089 5.43612L11.3083 6.13552C11.3752 6.20237 11.3752 6.31075 11.3083 6.3776L8.4692 9.21672C8.40235 9.28357 8.29397 9.28357 8.22712 9.21672L5.73036 6.71996C5.66352 6.65311 5.66352 6.54472 5.73036 6.47788L11.0662 1.07673Z" fill="#F6F6F6" fill-opacity="0.03"/>
</svg>
